<svg version="1.1" id="Layer_1" xmlns="http://www.w3.org/2000/svg" xmlns:xlink="http://www.w3.org/1999/xlink" x="0px" y="0px"
	 width="100%" viewBox="0 0 168 299" enable-background="new 0 0 168 299" xml:space="preserve">
<path fill="#FEFFFF" opacity="1.000000" stroke="none" 
	d="
M1.000000,119.000000 
	C1.000000,79.333336 1.000000,40.166676 1.000000,1.000010 
	C56.999989,1.000007 112.999977,1.000007 168.999969,1.000004 
	C168.999985,100.666649 168.999985,200.333298 169.000000,299.999939 
	C113.000031,299.999969 57.000061,299.999969 1.000045,300.000000 
	C1.000000,239.833328 1.000000,179.666672 1.000000,119.000000 
M110.674637,142.391159 
	C110.674637,142.391159 110.978539,142.269913 111.617607,142.123993 
	C112.037842,142.004257 112.458076,141.884521 113.274628,142.356720 
	C116.919739,142.343903 120.933395,138.590973 122.868866,134.036499 
	C124.731186,134.179932 126.593498,134.323349 128.520859,134.471786 
	C127.962440,132.512238 127.455185,130.732208 126.999504,129.000000 
	C126.999504,129.000000 126.952873,128.948441 127.745750,128.986862 
	C132.967529,128.113983 135.926147,122.467514 134.003510,116.341118 
	C134.043655,115.899628 134.083786,115.458145 134.757507,114.892944 
	C135.034470,114.390694 135.640381,113.803627 135.536209,113.399666 
	C134.721710,110.240936 133.770889,107.117355 132.661972,103.292542 
	C132.383148,103.268585 131.138000,103.161606 129.510544,102.973663 
	C129.510544,102.973663 129.130737,102.881622 129.062775,102.163368 
	C128.009216,99.818115 126.955673,97.472855 126.233055,94.494629 
	C127.191444,93.006386 128.149826,91.518135 128.625656,90.779228 
	C125.636162,90.106468 123.271500,89.574326 120.395012,88.702850 
	C119.930183,87.802437 119.465355,86.902031 119.018936,85.338448 
	C119.019394,84.896179 119.019852,84.453911 119.296692,83.893974 
	C119.193787,83.922401 119.090874,83.950829 118.412827,84.007370 
	C118.222275,84.030510 118.031731,84.053642 117.308380,83.775131 
	C116.546654,82.829201 115.784927,81.883270 114.988533,80.161942 
	C114.314384,77.861908 113.846329,75.469574 112.875778,73.302277 
	C112.417091,72.278023 110.995911,71.684784 111.090134,71.760208 
	C109.534599,74.314980 108.677284,75.723007 107.400841,77.116844 
	C107.400841,77.116844 106.996086,77.007057 106.999359,76.225281 
	C105.676743,73.904175 104.354118,71.583076 102.966164,69.147301 
	C101.093864,70.364525 99.380333,71.478539 97.141838,72.933830 
	C96.916046,67.810387 98.709373,62.522648 93.162598,59.214863 
	C96.567596,54.985603 96.858101,51.898422 94.112411,48.366558 
	C95.700851,45.447361 99.142174,42.601402 96.481499,39.115570 
	C94.727463,36.817543 91.579941,35.583145 88.941574,33.355961 
	C88.653870,33.170341 88.366158,32.984726 87.809189,32.194679 
	C82.777069,30.045206 77.890907,27.206896 71.782219,28.171349 
	C70.931686,27.938871 69.616051,27.235262 69.301537,27.545750 
	C65.567375,31.232124 65.732079,39.360111 69.414627,43.202686 
	C69.809593,43.614819 69.853416,44.363453 69.516769,45.170925 
	C64.450745,50.759064 64.272133,51.664032 66.968857,55.884045 
	C68.172745,54.963490 69.409615,54.017715 70.823853,53.937042 
	C70.850609,56.302650 70.877365,58.668259 70.396439,61.472626 
	C70.401688,63.533409 65.964096,65.168991 69.879852,67.835678 
	C70.700813,66.772285 71.434067,65.822495 72.600632,65.085274 
	C72.851311,65.310478 72.999825,65.589966 72.938217,66.659439 
	C72.995056,68.837494 73.051895,71.015556 72.769714,73.650955 
	C72.429192,73.814194 72.088676,73.977432 71.170204,74.120491 
	C70.784668,74.131104 70.399132,74.141716 69.775284,73.527374 
	C69.251366,72.776566 68.727448,72.025757 69.048424,72.485733 
	C66.040932,73.528130 63.598972,73.919495 61.696823,75.147202 
	C59.234459,76.736488 57.202705,78.992943 54.716030,81.398537 
	C54.432968,81.581810 54.149910,81.765091 53.053555,81.967896 
	C47.830288,81.853836 48.135170,84.532730 50.015533,88.875961 
	C49.923138,90.907677 49.830742,92.939384 49.131763,95.111900 
	C49.115700,96.088455 49.099636,97.065002 49.026001,98.614655 
	C48.771873,99.116089 48.517746,99.617516 47.428661,100.122513 
	C46.620052,102.013512 45.493324,103.836281 45.069962,105.809914 
	C44.224022,109.753502 44.755905,114.352829 42.872047,117.614838 
	C40.887253,121.051628 40.421089,123.689705 42.030460,127.944710 
	C42.046570,134.953796 42.062679,141.962891 41.482094,149.460083 
	C41.337791,151.003311 41.193493,152.546539 41.063156,154.555649 
	C41.063156,154.555649 41.070702,155.021698 40.525124,155.278778 
	C39.729946,155.886597 38.934765,156.494415 37.456181,156.773270 
	C36.245735,155.085007 35.035290,153.396759 33.435619,151.165619 
	C32.430843,154.977539 33.882877,157.608353 36.100922,160.696213 
	C36.064098,161.130219 36.027275,161.564209 35.308205,162.009323 
	C34.535034,162.536438 33.761864,163.063553 32.988697,163.590668 
	C33.199043,163.858963 33.409393,164.127258 33.619743,164.395554 
	C34.461521,163.899017 35.303299,163.402466 36.587975,163.418518 
	C37.026386,164.940613 37.464798,166.462708 37.154507,168.020126 
	C35.797108,170.546661 34.434082,173.070267 33.113586,175.615952 
	C33.079334,175.681976 33.510040,175.989182 33.838810,176.288528 
	C34.666378,175.156860 35.470135,174.057739 36.111076,173.181274 
	C37.988754,173.869690 39.472641,174.413742 41.060482,175.575577 
	C41.379227,176.079575 41.697971,176.583588 41.735378,177.872757 
	C40.657024,184.073746 45.413826,182.292755 49.291218,182.850189 
	C49.640171,182.099838 49.989128,181.349472 50.445049,180.434387 
	C50.445049,180.434387 50.584991,180.296555 51.314278,180.747513 
	C51.875092,180.834488 52.435905,180.921463 52.985336,181.785065 
	C51.326675,185.973160 52.173458,188.580338 56.062740,188.296005 
	C57.022835,192.977142 57.677162,197.255600 58.919655,201.355835 
	C59.184971,202.231369 61.586201,202.459671 63.539303,203.006470 
	C63.894405,203.028717 64.249504,203.050964 64.805511,203.838730 
	C64.878662,204.890930 64.951805,205.943146 64.564034,207.281967 
	C64.716309,207.855453 64.868584,208.428955 65.070869,209.938385 
	C65.000099,217.292252 64.929329,224.646133 64.462273,232.276352 
	C64.220360,232.513840 64.086411,232.801620 64.024193,234.060562 
	C64.102592,236.879456 64.181000,239.698349 64.031738,243.347137 
	C64.237534,244.439316 64.443321,245.531479 64.032745,246.308868 
	C64.225143,247.054779 64.417549,247.800690 64.563988,249.322464 
	C64.562439,250.098007 64.560890,250.873550 63.911251,252.115875 
	C62.400982,253.101318 59.550518,254.148270 59.592476,255.062469 
	C59.927971,262.372192 54.581993,264.357117 49.504353,266.803711 
	C47.912346,267.570770 46.507267,268.725769 45.016617,269.703186 
	C46.803856,270.552551 48.600712,272.141266 50.376602,272.118195 
	C56.705093,272.035858 63.044353,271.556854 69.330597,270.813843 
	C70.238014,270.706604 70.877602,268.333313 71.999565,266.488647 
	C72.103951,266.305725 72.208336,266.122772 72.711166,265.537842 
	C72.535316,264.705048 72.359474,263.872253 71.913803,262.487152 
	C71.901932,262.082825 71.890060,261.678497 71.909607,260.371246 
	C71.883141,260.071228 71.856667,259.771240 71.572220,259.034607 
	C71.648529,258.711823 71.724838,258.389008 72.422379,257.693115 
	C73.518066,256.716614 74.613754,255.740097 76.443466,254.109406 
	C74.038414,253.517258 72.451393,253.126526 70.953270,252.276001 
	C71.298973,251.184128 71.644684,250.092239 72.880669,249.000778 
	C75.320457,249.000778 77.760239,249.000778 80.861946,249.000778 
	C80.201027,243.711227 79.524849,238.928284 79.035294,234.126312 
	C78.775848,231.581467 78.840645,229.003586 78.506966,225.772568 
	C78.683716,224.847641 78.860474,223.922714 79.778351,222.843399 
	C81.548737,220.397614 82.097061,218.051712 79.064346,215.168396 
	C79.011414,213.783951 78.958481,212.399490 79.695778,210.856705 
	C80.021217,207.327286 80.346657,203.797852 80.672104,200.268433 
	C80.044388,199.751694 79.416679,199.234955 78.788971,198.718216 
	C81.368698,197.842560 84.014252,196.099548 86.513138,196.289169 
	C90.526787,196.593750 89.642708,200.385864 90.101784,203.268417 
	C90.681061,206.905609 91.915665,210.438416 92.981720,214.755234 
	C92.969231,215.501831 92.956749,216.248444 92.243896,217.130646 
	C91.705566,219.688446 87.042328,221.915161 91.621613,224.883713 
	C89.894485,231.365463 96.413589,232.969025 98.994888,237.766052 
	C99.317360,239.498047 99.639824,241.230042 99.267891,243.093567 
	C96.266235,244.344803 96.864128,245.926620 98.519844,248.051956 
	C99.424179,249.212814 100.325905,251.163910 99.962791,252.380875 
	C98.713310,256.568451 98.974236,260.413574 101.010124,264.902069 
	C101.337265,265.969147 101.664406,267.036255 102.008858,268.825745 
	C105.094498,271.977692 108.180138,275.129608 111.225670,278.240570 
	C115.683777,276.146484 119.490265,274.358459 122.936028,272.739899 
	C120.664963,267.913330 119.020477,264.123016 117.068283,260.498474 
	C116.635780,259.695465 115.116394,259.477875 113.907265,258.291962 
	C113.556190,257.200012 113.205124,256.108032 112.991661,254.350372 
	C112.657509,253.833450 112.323357,253.316528 111.713936,252.184021 
	C111.355949,250.475876 110.997955,248.767715 111.240685,247.015961 
	C111.495155,245.504929 111.980896,243.991440 111.964859,242.483276 
	C111.887413,235.199829 111.687157,227.917419 111.456352,220.636978 
	C111.448769,220.398041 110.643349,220.184387 110.069038,219.227783 
	C110.068275,218.484344 110.067505,217.740891 110.611015,216.446518 
	C109.453110,210.409332 108.396263,204.349152 107.034409,198.358337 
	C106.816101,197.397995 105.233925,196.747681 104.178802,195.249008 
	C104.477974,194.174744 104.777145,193.100479 105.748734,191.890182 
	C105.546356,190.585709 105.343979,189.281250 104.807693,187.277802 
	C104.642761,187.079132 104.477829,186.880463 104.859680,186.112610 
	C105.315536,184.407440 105.771400,182.702255 106.510963,180.802658 
	C106.406075,180.535065 106.301193,180.267456 106.042885,179.123291 
	C104.818886,171.451797 103.594894,163.780304 103.206848,155.994431 
	C103.789192,155.295059 104.360161,154.585815 104.956642,153.898727 
	C105.793587,152.934631 106.649498,151.987015 107.497307,151.032364 
	C108.355179,151.811417 109.229721,152.573151 110.064758,153.375946 
	C110.579277,153.870605 111.033508,154.427979 111.514801,154.957184 
	C112.516953,153.281830 112.610062,151.815308 112.249840,150.470200 
	C111.671356,148.310043 110.793060,146.230179 110.155212,143.495911 
	C110.198357,143.083710 110.241501,142.671509 110.277328,142.333374 
	C110.277328,142.333374 110.351463,142.340027 110.674637,142.391159 
M51.345821,190.506577 
	C50.564018,191.682709 49.782215,192.858826 49.000412,194.034958 
	C49.666962,194.264160 50.333511,194.493378 51.000057,194.722580 
	C51.263329,193.493088 51.526596,192.263611 51.345821,190.506577 
M112.473694,189.221207 
	C112.583405,188.012329 112.693108,186.803436 112.802818,185.594559 
	C112.264191,185.607407 111.725563,185.620255 111.186935,185.633118 
	C111.408791,186.781265 111.630638,187.929428 112.473694,189.221207 
M83.352562,208.302521 
	C84.063171,208.650375 84.773773,208.998230 85.484375,209.346085 
	C85.571953,208.909515 85.659523,208.472961 85.747093,208.036377 
	C84.983925,207.910690 84.220749,207.785004 83.352562,208.302521 
M86.722397,221.117401 
	C86.530739,220.574951 86.339081,220.032486 86.147415,219.490021 
	C85.869431,219.617188 85.591438,219.744339 85.313454,219.871506 
	C85.638474,220.429871 85.963493,220.988251 86.722397,221.117401 
M78.565842,258.295105 
	C78.294197,258.010437 78.022560,257.725800 77.750923,257.441132 
	C77.633148,257.553772 77.406738,257.758179 77.413239,257.765869 
	C77.666740,258.066071 77.941490,258.348328 78.565842,258.295105 
M78.434860,251.704910 
	C78.706062,251.989059 78.977264,252.273209 79.248459,252.557373 
	C79.366089,252.444946 79.592155,252.240936 79.585701,252.233322 
	C79.332581,251.933609 79.058296,251.651764 78.434860,251.704910 
M108.343895,185.627213 
	C108.418434,185.881790 108.492973,186.136383 108.567513,186.390961 
	C108.850380,186.114532 109.133247,185.838104 109.416122,185.561676 
	C109.163391,185.480911 108.910667,185.400131 108.343895,185.627213 
M50.482540,184.588486 
	C50.482540,184.588486 50.415684,184.476913 50.482540,184.588486 
z"/>
<path fill="#F9AF75" opacity="1.000000" stroke="none" 
	d="
M64.259407,242.517242 
	C64.181000,239.698349 64.102592,236.879456 64.264252,233.476868 
	C64.622391,232.595444 64.740479,232.297729 64.858559,232.000000 
	C64.929329,224.646133 65.000099,217.292252 65.240303,209.313477 
	C65.281479,208.124176 65.153214,207.559753 65.024956,206.995346 
	C64.951805,205.943146 64.878662,204.890930 64.818878,203.038635 
	C64.878723,200.538467 64.925194,198.838425 64.954590,196.781464 
	C64.973198,195.622009 65.008881,194.819473 65.096977,192.838181 
	C67.308723,194.845337 69.373352,195.942047 70.260513,197.650299 
	C75.977875,208.659103 76.042503,220.377655 73.700233,232.193558 
	C72.977791,235.838028 71.283890,239.289932 69.678520,242.941711 
	C67.634628,242.874695 65.947021,242.695969 64.259407,242.517242 
z"/>
<path fill="#FAAF76" opacity="1.000000" stroke="none" 
	d="
M119.000534,86.001617 
	C119.465355,86.902031 119.930183,87.802437 120.700798,89.189667 
	C121.376137,90.445152 121.745697,91.213821 121.757309,92.036438 
	C121.007248,92.368507 120.422623,92.560005 120.252510,92.938042 
	C118.345947,97.174683 116.061852,100.425591 110.476387,98.505005 
	C109.691727,98.235199 108.169212,100.111198 106.690910,100.845825 
	C104.817398,100.520485 103.241219,100.343254 101.483147,100.174835 
	C101.301262,100.183647 100.975937,100.019951 100.983353,99.618546 
	C100.438133,97.323929 99.301262,95.384537 99.446587,93.546524 
	C99.825050,88.759903 100.434166,83.920357 101.777534,79.344490 
	C102.029747,78.485405 106.110977,78.750435 108.774048,78.589127 
	C111.089622,79.433464 113.056412,80.185402 115.023201,80.937340 
	C115.784927,81.883270 116.546654,82.829201 117.628754,84.215614 
	C118.299599,85.104607 118.650070,85.553108 119.000534,86.001617 
z"/>
<path fill="#F6AD75" opacity="1.000000" stroke="none" 
	d="
M105.076324,192.026215 
	C104.777145,193.100479 104.477974,194.174744 104.119141,196.000076 
	C105.062737,200.471008 106.066002,204.190857 107.059708,208.215424 
	C107.351768,209.009750 107.653381,209.499390 107.991592,210.336670 
	C108.310295,211.787720 108.592392,212.891144 108.522057,214.072754 
	C108.776703,220.099487 109.383789,226.048035 110.045349,232.448334 
	C110.108620,236.339462 110.117424,239.778824 109.818459,243.341400 
	C107.316124,243.804474 105.121559,244.144333 102.731979,244.401230 
	C101.678741,243.866180 100.820518,243.414108 99.962288,242.962036 
	C99.639824,241.230042 99.317360,239.498047 98.914963,237.058990 
	C98.529442,235.286560 98.223839,234.221191 97.931587,232.846985 
	C97.660782,232.029099 97.376617,231.520081 97.018341,230.725159 
	C96.915466,230.047668 96.886726,229.656067 96.906754,228.868622 
	C96.334160,227.309509 95.712784,226.146194 95.005981,224.669312 
	C94.880325,223.924698 94.840096,223.493683 95.084709,222.882721 
	C95.569801,221.132797 95.770058,219.562836 96.293289,217.972214 
	C97.411438,217.634933 98.206612,217.318298 99.275032,217.238708 
	C98.620125,222.479279 100.568886,226.361633 104.758728,230.326385 
	C105.231644,228.641754 106.116699,226.793045 105.771004,226.523636 
	C101.069893,222.859970 103.343803,217.797714 103.100029,213.360367 
	C102.929420,210.254700 101.451096,209.804855 99.064339,209.655304 
	C100.940659,208.941910 102.761482,208.578384 103.934593,208.344177 
	C103.286026,203.175415 102.645790,198.073029 102.250282,192.782715 
	C103.227470,191.716644 103.959923,190.838455 104.775841,190.300629 
	C104.931648,191.102722 105.003990,191.564468 105.076324,192.026215 
z"/>
<path fill="#F9F8F2" opacity="1.000000" stroke="none" 
	d="
M92.867569,214.016266 
	C91.915665,210.438416 90.681061,206.905609 90.101784,203.268417 
	C89.642708,200.385864 90.526787,196.593750 86.513138,196.289169 
	C84.014252,196.099548 81.368698,197.842560 78.788971,198.718216 
	C79.416679,199.234955 80.044388,199.751694 80.672104,200.268433 
	C80.346657,203.797852 80.021217,207.327286 79.064774,210.660431 
	C74.907211,203.798508 75.786743,196.832764 77.279922,189.597961 
	C78.394249,188.094574 79.632484,186.947723 80.049751,185.554916 
	C81.208618,181.686829 82.026024,177.716431 83.322334,173.960815 
	C84.405975,176.752426 85.145615,179.369690 85.883087,182.379425 
	C86.930038,184.891479 87.979156,187.011063 89.051086,189.475876 
	C90.724861,192.549591 92.375824,195.278076 94.119400,198.355103 
	C94.420036,200.114288 94.628052,201.524918 94.608833,203.174866 
	C94.274345,204.279602 94.167091,205.145035 93.986664,206.370880 
	C93.850723,207.463211 93.787949,208.195099 93.502136,209.224655 
	C93.141922,211.020294 93.004745,212.518280 92.867569,214.016266 
z"/>
<path fill="#1B5DAA" opacity="1.000000" stroke="none" 
	d="
M71.641129,267.008667 
	C70.877602,268.333313 70.238014,270.706604 69.330597,270.813843 
	C63.044353,271.556854 56.705093,272.035858 50.376602,272.118195 
	C48.600712,272.141266 46.803856,270.552551 45.016624,269.703186 
	C46.507267,268.725769 47.912346,267.570770 49.504353,266.803711 
	C54.581993,264.357117 59.927971,262.372192 59.592476,255.062469 
	C59.550518,254.148270 62.400982,253.101318 64.396614,252.233948 
	C65.562119,253.950821 66.242264,255.549622 66.930214,257.589478 
	C66.938026,261.462250 66.938026,264.894043 66.938026,269.199707 
	C69.375420,268.064178 70.508270,267.536438 71.641129,267.008667 
z"/>
<path fill="#FBFCFB" opacity="1.000000" stroke="none" 
	d="
M63.003433,202.986145 
	C61.586201,202.459671 59.184971,202.231369 58.919655,201.355835 
	C57.677162,197.255600 57.022835,192.977142 56.062740,188.296005 
	C52.173458,188.580338 51.326675,185.973160 53.261192,181.175278 
	C53.038441,178.402908 60.096951,175.623077 52.995293,173.615784 
	C52.945747,172.719925 52.901642,172.207672 52.861061,171.255310 
	C52.870396,167.279816 52.876205,163.744476 52.915131,159.851288 
	C53.300922,158.661423 53.653595,157.829407 54.480919,156.998596 
	C57.215996,156.832718 59.476421,156.665619 61.803398,156.839981 
	C61.863323,158.098526 61.856697,159.015594 61.501953,160.116028 
	C61.089180,161.868546 61.024525,163.437714 60.828957,165.287506 
	C60.648682,165.977783 60.599312,166.387421 60.290855,167.139664 
	C60.316525,173.651825 60.601280,179.821365 60.853714,186.319672 
	C61.038380,187.026077 61.255363,187.403702 61.144844,187.838196 
	C60.442879,188.313690 59.681583,188.817398 59.752129,189.138199 
	C60.770321,193.768600 61.900276,198.374420 63.003433,202.986145 
z"/>
<path fill="#EA935D" opacity="1.000000" stroke="none" 
	d="
M77.029190,189.842285 
	C75.786743,196.832764 74.907211,203.798508 78.669662,210.739594 
	C78.958481,212.399490 79.011414,213.783951 79.059723,216.009766 
	C79.049141,218.900009 79.043182,220.948898 79.037224,222.997787 
	C78.860474,223.922714 78.683716,224.847641 78.352257,226.384903 
	C76.452782,232.309372 74.708023,237.621490 72.596046,242.933075 
	C71.497490,242.898361 70.766144,242.864182 70.034798,242.829987 
	C71.283890,239.289932 72.977791,235.838028 73.700233,232.193558 
	C76.042503,220.377655 75.977875,208.659103 70.260513,197.650299 
	C69.373352,195.942047 67.308723,194.845337 65.096977,192.838181 
	C65.008881,194.819473 64.973198,195.622009 64.726456,196.500885 
	C63.718475,193.751144 62.921555,190.925079 62.426525,188.072876 
	C63.133282,188.068695 63.538151,188.090683 63.967808,188.081360 
	C63.992599,188.050049 63.912727,188.049362 64.180679,188.356094 
	C68.642159,189.055984 72.835670,189.449127 77.029190,189.842285 
z"/>
<path fill="#0F0D0D" opacity="1.000000" stroke="none" 
	d="
M89.028275,189.130630 
	C87.979156,187.011063 86.930038,184.891479 86.261978,182.448334 
	C88.456100,185.246811 88.983559,190.181442 95.075592,187.445068 
	C94.851334,185.190781 100.260353,182.488297 92.965279,179.707870 
	C98.865746,179.077225 99.136681,175.906296 99.017815,172.413452 
	C98.916725,169.443069 99.225143,166.442017 98.917885,163.499908 
	C98.585289,160.315186 97.749252,157.183029 97.086052,153.668182 
	C97.749016,152.471649 98.458725,151.634888 99.509659,150.876984 
	C100.690887,152.673508 101.530891,154.391159 102.370903,156.108810 
	C103.594894,163.780304 104.818886,171.451797 106.050575,179.813263 
	C106.114601,180.667862 106.170937,180.832474 106.227264,180.997086 
	C105.771400,182.702255 105.315536,184.407440 104.227112,186.410828 
	C98.739128,187.516235 93.883698,188.323425 89.028275,189.130630 
z"/>
<path fill="#F6AB70" opacity="1.000000" stroke="none" 
	d="
M73.046165,65.923737 
	C72.999825,65.589966 72.851311,65.310478 72.326859,64.630318 
	C71.670097,63.128197 71.287109,62.081032 70.904129,61.033867 
	C70.877365,58.668259 70.850609,56.302650 70.835373,53.120144 
	C71.566628,50.254032 72.286362,48.204819 73.347229,45.996635 
	C75.114151,45.552635 76.539940,45.267601 78.308136,45.050087 
	C79.392754,46.263813 80.134979,47.410023 80.789848,48.421345 
	C82.565193,48.135944 84.317062,47.477394 85.922234,47.734550 
	C86.920029,47.894402 88.624107,49.894253 88.428246,50.295425 
	C86.335777,54.581280 89.196800,57.347553 91.160690,60.641731 
	C91.115837,61.187576 91.113312,61.500072 91.032730,62.074905 
	C90.298035,63.225677 89.672142,64.114365 88.706985,64.998344 
	C87.916801,65.003349 87.465881,65.013062 87.010574,64.685104 
	C87.004372,63.897163 87.002541,63.446896 87.252106,62.777237 
	C86.125748,59.287113 84.747993,56.016384 83.370247,52.745655 
	C82.771538,52.873779 82.172829,53.001904 81.574120,53.130028 
	C81.381729,54.420528 81.189339,55.711025 80.624634,57.075638 
	C76.942253,61.185574 78.905952,65.754715 78.644958,69.955353 
	C76.582115,68.495911 74.814140,67.209824 73.046165,65.923737 
z"/>
<path fill="#232736" opacity="1.000000" stroke="none" 
	d="
M77.965736,44.982571 
	C76.539940,45.267601 75.114151,45.552635 73.035889,45.881195 
	C71.608994,45.601810 70.834564,45.278900 70.060135,44.955986 
	C69.853416,44.363453 69.809593,43.614819 69.414627,43.202686 
	C65.732079,39.360111 65.567375,31.232124 69.301537,27.545750 
	C69.616051,27.235262 70.931686,27.938871 71.875000,28.846355 
	C71.295723,31.284138 69.004837,32.762321 70.755707,35.195789 
	C71.535004,36.606010 72.361511,38.114044 73.628120,38.973415 
	C79.288734,42.814030 84.515518,38.545128 90.033211,38.328529 
	C89.640976,36.539295 89.348679,35.205894 89.056366,33.872494 
	C91.579941,35.583145 94.727463,36.817543 96.481499,39.115570 
	C99.142174,42.601402 95.700851,45.447361 93.757401,48.677055 
	C91.288994,47.616791 89.175591,46.246033 87.011009,44.643501 
	C86.959824,44.411724 86.839195,43.952583 86.916313,43.666656 
	C86.653519,42.901558 86.313614,42.422382 85.652100,41.998123 
	C84.572495,42.456810 83.814499,42.860584 82.707443,43.251865 
	C80.894165,43.820435 79.429947,44.401505 77.965736,44.982571 
z"/>
<path fill="#F8B077" opacity="1.000000" stroke="none" 
	d="
M48.263618,100.118950 
	C48.517746,99.617516 48.771873,99.116089 49.279114,98.308502 
	C49.532227,98.002350 49.982155,97.973259 50.123955,98.288788 
	C50.622154,99.958214 51.305717,101.318726 51.278500,102.664856 
	C51.158588,108.595291 50.822338,114.521217 50.640305,120.451111 
	C50.635075,120.621384 51.478291,120.817703 51.943630,121.433685 
	C52.322662,126.306267 52.683964,130.747025 53.053108,135.570892 
	C52.004326,139.290375 50.947708,142.626755 49.580170,145.970581 
	C48.853703,145.994217 48.438152,146.010391 47.793842,145.718140 
	C47.190544,142.661758 46.638947,139.924026 46.479969,137.163681 
	C46.188702,132.106277 46.129204,127.035530 46.129589,121.625046 
	C46.430992,120.063583 46.575871,118.847404 46.783710,117.275253 
	C46.944859,115.947128 47.043041,114.974983 47.286926,113.899460 
	C47.304028,113.532372 47.175426,113.268684 46.992790,112.557663 
	C47.380379,108.113205 47.821999,104.116081 48.263618,100.118950 
z"/>
<path fill="#F6AE7B" opacity="1.000000" stroke="none" 
	d="
M53.866852,81.948372 
	C54.149910,81.765091 54.432968,81.581810 55.228760,81.187347 
	C58.497437,79.957359 61.253384,78.938560 64.010651,78.280663 
	C63.913143,79.347725 63.814327,80.053894 63.399345,80.912666 
	C62.730728,81.599655 62.215485,82.088402 62.050900,82.675461 
	C60.338787,88.782303 58.683071,94.904961 56.967712,100.700043 
	C56.282921,99.917786 55.642124,99.458694 55.000893,98.749146 
	C54.999237,98.331711 54.998009,98.164734 54.973270,97.678001 
	C54.629738,96.569824 54.309723,95.781410 53.991241,94.607079 
	C53.618870,92.407845 53.244961,90.594536 52.871056,88.781219 
	C51.545776,91.023277 49.022415,93.317322 52.997307,95.348419 
	C52.998249,96.114418 52.998550,96.552177 52.646725,96.990753 
	C51.593262,97.000587 50.891930,97.009605 50.116074,96.676773 
	C49.940483,95.880318 49.839413,95.425713 49.738342,94.971100 
	C49.830742,92.939384 49.923138,90.907677 50.276230,88.232574 
	C51.646900,85.708923 52.756874,83.828644 53.866852,81.948372 
z"/>
<path fill="#BCE4F0" opacity="1.000000" stroke="none" 
	d="
M114.097458,258.990692 
	C115.116394,259.477875 116.635780,259.695465 117.068283,260.498474 
	C119.020477,264.123016 120.664963,267.913330 122.936028,272.739899 
	C119.490265,274.358459 115.683777,276.146484 111.225670,278.240570 
	C108.180138,275.129608 105.094498,271.977692 102.336090,268.504303 
	C104.054375,268.902863 105.445427,269.622864 107.020035,270.642212 
	C109.351868,271.436615 111.627235,272.582306 113.603424,272.196320 
	C114.905960,271.941895 115.777832,269.482697 116.900360,267.640259 
	C116.004616,264.510071 115.051041,261.750366 114.097458,258.990692 
z"/>
<path fill="#E0A678" opacity="1.000000" stroke="none" 
	d="
M87.062195,44.875275 
	C89.175591,46.246033 91.288994,47.616791 93.765144,48.972130 
	C96.858101,51.898422 96.567596,54.985603 92.790741,59.676331 
	C92.003357,60.227909 91.587822,60.318020 91.172287,60.408127 
	C89.196800,57.347553 86.335777,54.581280 88.428246,50.295425 
	C88.624107,49.894253 86.920029,47.894402 85.922234,47.734550 
	C84.317062,47.477394 82.565193,48.135944 80.789848,48.421345 
	C80.134979,47.410023 79.392754,46.263813 78.308136,45.050087 
	C79.429947,44.401505 80.894165,43.820435 82.754089,43.554607 
	C84.453941,44.204990 85.758064,44.540131 87.062195,44.875275 
z"/>
<path fill="#F9F8F2" opacity="1.000000" stroke="none" 
	d="
M72.963257,242.933609 
	C74.708023,237.621490 76.452782,232.309372 78.478302,226.718933 
	C78.840645,229.003586 78.775848,231.581467 79.035294,234.126312 
	C79.524849,238.928284 80.201027,243.711227 80.861946,249.000778 
	C77.760239,249.000778 75.320457,249.000778 72.423103,248.612579 
	C72.298103,246.460785 72.630676,244.697189 72.963257,242.933609 
z"/>
<path fill="#F9F8F2" opacity="1.000000" stroke="none" 
	d="
M91.160690,60.641731 
	C91.587822,60.318020 92.003357,60.227909 92.721230,60.034191 
	C98.709373,62.522648 96.916046,67.810387 97.141838,72.933830 
	C99.380333,71.478539 101.093864,70.364525 102.966164,69.147301 
	C104.354118,71.583076 105.676743,73.904175 106.610184,76.630447 
	C104.469330,76.631927 102.717667,76.228241 100.743362,75.566940 
	C98.927094,74.844215 97.333443,74.379105 95.522598,73.645325 
	C92.469254,72.349274 91.514114,70.380707 91.796219,67.378845 
	C91.967140,65.560074 91.385216,63.670551 91.141525,61.812817 
	C91.113312,61.500072 91.115837,61.187576 91.160690,60.641731 
z"/>
<path fill="#F9AD6C" opacity="1.000000" stroke="none" 
	d="
M112.878304,141.764771 
	C112.458076,141.884521 112.037842,142.004257 111.244850,141.981827 
	C110.698555,142.006454 110.525017,142.173248 110.351471,142.340027 
	C110.351463,142.340027 110.277328,142.333374 109.969482,142.348999 
	C109.444931,142.919739 109.228233,143.474869 108.911072,144.249237 
	C108.616341,144.742432 108.357460,144.924591 107.685791,145.006683 
	C106.225334,145.673325 105.113068,146.348236 103.582535,147.020020 
	C98.371437,147.900116 96.534386,145.222336 96.222855,140.885834 
	C97.027969,140.128265 97.563477,139.516327 98.457687,138.922531 
	C100.316040,138.892075 101.815376,138.826080 103.315399,138.799896 
	C104.749725,138.774841 106.184769,138.791183 108.015533,138.830353 
	C110.266411,138.767212 113.134743,136.382751 112.912331,141.103989 
	C112.882477,141.322906 112.878304,141.764771 112.878304,141.764771 
z"/>
<path fill="#1E2A48" opacity="1.000000" stroke="none" 
	d="
M88.998978,33.614227 
	C89.348679,35.205894 89.640976,36.539295 90.033211,38.328529 
	C84.515518,38.545128 79.288734,42.814030 73.628120,38.973415 
	C72.361511,38.114044 71.535004,36.606010 71.218384,35.196720 
	C77.313416,34.264252 82.695930,33.531677 88.078453,32.799103 
	C88.366158,32.984726 88.653870,33.170341 88.998978,33.614227 
z"/>
<path fill="#0D0C12" opacity="1.000000" stroke="none" 
	d="
M72.596039,242.933075 
	C72.630676,244.697189 72.298103,246.460785 71.977966,248.612366 
	C71.644684,250.092239 71.298973,251.184128 70.681686,252.639496 
	C70.075912,254.315964 69.741722,255.628967 69.095551,256.919006 
	C68.163177,256.980164 67.542786,257.064301 66.922401,257.148438 
	C66.242264,255.549622 65.562119,253.950821 64.720657,252.000549 
	C64.560890,250.873550 64.562439,250.098007 64.728790,248.767059 
	C64.812103,247.682327 64.730614,247.152985 64.649117,246.623657 
	C64.443321,245.531479 64.237534,244.439316 64.145569,242.932190 
	C65.947021,242.695969 67.634628,242.874695 69.678520,242.941711 
	C70.766144,242.864182 71.497490,242.898361 72.596039,242.933075 
z"/>
<path fill="#2B2E49" opacity="1.000000" stroke="none" 
	d="
M87.943817,32.496891 
	C82.695930,33.531677 77.313416,34.264252 71.468208,34.995895 
	C69.004837,32.762321 71.295723,31.284138 72.010818,29.188793 
	C77.890907,27.206896 82.777069,30.045206 87.943817,32.496891 
z"/>
<path fill="#E2EAE7" opacity="1.000000" stroke="none" 
	d="
M99.615089,243.027802 
	C100.820518,243.414108 101.678741,243.866180 102.584091,244.823761 
	C103.459641,248.513046 104.288071,251.696823 105.058899,255.208740 
	C104.950020,255.977921 104.898735,256.418976 104.506119,256.987915 
	C103.141891,259.471161 102.119003,261.826538 101.096115,264.181915 
	C98.974236,260.413574 98.713310,256.568451 99.962791,252.380875 
	C100.325905,251.163910 99.424179,249.212814 98.519844,248.051956 
	C96.864128,245.926620 96.266235,244.344803 99.615089,243.027802 
z"/>
<path fill="#EA935D" opacity="1.000000" stroke="none" 
	d="
M89.051086,189.475876 
	C93.883698,188.323425 98.739128,187.516235 103.953728,186.695419 
	C104.477829,186.880463 104.642761,187.079132 104.903214,187.959122 
	C104.896606,189.080383 104.794487,189.520325 104.692368,189.960266 
	C103.959923,190.838455 103.227470,191.716644 101.882973,192.786331 
	C100.182701,193.325531 99.094475,193.673218 97.699005,194.167114 
	C96.270111,195.544403 95.148453,196.775482 94.026794,198.006546 
	C92.375824,195.278076 90.724861,192.549591 89.051086,189.475876 
z"/>
<path fill="#EEBA91" opacity="1.000000" stroke="none" 
	d="
M46.720749,117.631233 
	C46.575871,118.847404 46.430992,120.063583 45.840088,121.861023 
	C44.634937,129.392883 43.202438,136.381577 43.591919,143.267197 
	C43.688831,144.980560 42.598610,150.857422 48.070038,151.346588 
	C48.053928,152.783600 47.996815,153.897003 47.558266,155.032776 
	C43.968899,154.611664 44.202339,156.868164 43.858414,158.733261 
	C42.730675,157.381393 41.900692,156.201538 41.070702,155.021698 
	C41.070702,155.021698 41.063156,154.555649 41.402336,154.238586 
	C41.853939,152.271667 41.966362,150.621826 42.078789,148.971985 
	C42.062679,141.962891 42.046570,134.953796 42.280537,127.215027 
	C43.927322,123.533966 45.324036,120.582596 46.720749,117.631233 
z"/>
<path fill="#EEB382" opacity="1.000000" stroke="none" 
	d="
M40.797913,155.150238 
	C41.900692,156.201538 42.730675,157.381393 43.945950,158.631439 
	C44.331238,158.701645 44.583385,158.794891 44.294861,159.108368 
	C43.377613,161.789032 42.748886,164.156250 42.103413,166.900604 
	C41.688755,168.679199 41.290840,170.080658 40.564407,171.331558 
	C39.458328,170.115601 38.680767,169.050201 37.903210,167.984802 
	C37.464798,166.462708 37.026386,164.940613 36.353821,162.931152 
	C36.119671,162.443787 35.990452,161.998215 35.990456,161.998215 
	C36.027275,161.564209 36.064098,161.130219 36.345505,160.189621 
	C37.106586,158.822769 37.623089,157.962494 38.139591,157.102234 
	C38.934765,156.494415 39.729946,155.886597 40.797913,155.150238 
z"/>
<path fill="#0555B8" opacity="1.000000" stroke="none" 
	d="
M104.847458,256.860046 
	C104.898735,256.418976 104.950020,255.977921 105.403343,255.105499 
	C107.866661,254.049301 109.927925,253.424454 111.989197,252.799606 
	C112.323357,253.316528 112.657509,253.833450 112.697647,254.897766 
	C111.695496,256.111694 111.012238,256.807526 110.271843,257.436066 
	C109.602211,258.004547 108.186798,258.691895 108.272621,258.996887 
	C109.034950,261.705902 110.058083,264.341522 110.821060,267.272980 
	C109.423660,268.045502 108.209465,268.543823 106.950279,268.676056 
	C102.656570,265.133636 104.902466,260.790070 104.847458,256.860046 
z"/>
<path fill="#F9F8F2" opacity="1.000000" stroke="none" 
	d="
M94.799873,223.062668 
	C94.840096,223.493683 94.880325,223.924698 95.000443,225.008057 
	C95.672874,226.861755 96.265427,228.063095 96.857979,229.264450 
	C96.886726,229.656067 96.915466,230.047668 96.993484,231.032440 
	C97.334572,232.135651 97.626404,232.645737 97.918228,233.155823 
	C98.223839,234.221191 98.529442,235.286560 98.817329,236.684753 
	C96.413589,232.969025 89.894485,231.365463 91.621613,224.883713 
	C87.042328,221.915161 91.705566,219.688446 92.766068,217.385361 
	C93.792114,219.447601 94.295998,221.255142 94.799873,223.062668 
z"/>
<path fill="#192629" opacity="1.000000" stroke="none" 
	d="
M111.851562,252.491821 
	C109.927925,253.424454 107.866661,254.049301 105.460945,254.777374 
	C104.288071,251.696823 103.459641,248.513046 102.779106,244.906723 
	C105.121559,244.144333 107.316124,243.804474 109.853012,243.833664 
	C110.343536,245.154999 110.491753,246.107285 110.639969,247.059570 
	C110.997955,248.767715 111.355949,250.475876 111.851562,252.491821 
z"/>
<path fill="#FBF7ED" opacity="1.000000" stroke="none" 
	d="
M46.783707,117.275253 
	C45.324036,120.582596 43.927322,123.533966 42.276489,126.746864 
	C40.421089,123.689705 40.887253,121.051628 42.872047,117.614838 
	C44.755905,114.352829 44.224022,109.753502 45.069962,105.809914 
	C45.493324,103.836281 46.620052,102.013512 47.846142,100.120728 
	C47.821999,104.116081 47.380379,108.113205 46.982430,112.810280 
	C47.064480,113.674438 47.102856,113.838646 47.141228,114.002846 
	C47.043041,114.974983 46.944859,115.947128 46.783707,117.275253 
z"/>
<path fill="#0F57B0" opacity="1.000000" stroke="none" 
	d="
M111.004272,266.998779 
	C110.058083,264.341522 109.034950,261.705902 108.272621,258.996887 
	C108.186798,258.691895 109.602211,258.004547 110.271843,257.436066 
	C111.012238,256.807526 111.695496,256.111694 112.628845,255.230621 
	C113.205124,256.108032 113.556190,257.200012 114.002365,258.641327 
	C115.051041,261.750366 116.004616,264.510071 116.534622,267.579224 
	C114.408791,267.592072 112.706528,267.295441 111.004272,266.998779 
z"/>
<path fill="#FBF5EA" opacity="1.000000" stroke="none" 
	d="
M108.033981,145.014954 
	C108.357460,144.924591 108.616341,144.742432 109.168991,144.265167 
	C109.698730,144.080017 109.870087,144.098190 110.041451,144.116379 
	C110.793060,146.230179 111.671356,148.310043 112.249840,150.470200 
	C112.610062,151.815308 112.516953,153.281830 111.514801,154.957184 
	C111.033508,154.427979 110.579277,153.870605 110.064758,153.375946 
	C109.229721,152.573151 108.355179,151.811417 107.497299,151.032364 
	C106.649498,151.987015 105.793587,152.934631 104.956642,153.898727 
	C104.360161,154.585815 103.789192,155.295059 102.788879,156.051620 
	C101.530891,154.391159 100.690887,152.673508 99.719093,150.628815 
	C101.057251,149.853867 102.527199,149.405975 104.338425,148.953522 
	C105.797798,147.637619 106.915886,146.326279 108.033981,145.014954 
z"/>
<path fill="#F7F2E8" opacity="1.000000" stroke="none" 
	d="
M110.940323,247.037766 
	C110.491753,246.107285 110.343536,245.154999 110.160782,243.710449 
	C110.117424,239.778824 110.108620,236.339462 110.095695,231.989822 
	C110.130997,227.372696 110.170418,223.665817 110.209839,219.958954 
	C110.643349,220.184387 111.448769,220.398041 111.456352,220.636978 
	C111.687157,227.917419 111.887413,235.199829 111.964859,242.483276 
	C111.980896,243.991440 111.495155,245.504929 110.940323,247.037766 
z"/>
<path fill="#D7B599" opacity="1.000000" stroke="none" 
	d="
M100.965988,75.824547 
	C102.717667,76.228241 104.469330,76.631927 106.608543,77.021332 
	C106.996086,77.007057 107.400841,77.116844 107.682358,77.364380 
	C108.083000,77.924919 108.236794,78.219856 108.425255,78.496727 
	C106.110977,78.750435 102.029747,78.485405 101.777534,79.344490 
	C100.434166,83.920357 99.825050,88.759903 99.446587,93.546524 
	C99.301262,95.384537 100.438133,97.323929 100.688736,99.589310 
	C99.963066,99.554482 99.539421,99.147469 98.983200,98.401024 
	C98.281509,94.447197 97.712395,90.832809 97.349792,86.892960 
	C98.692863,82.986511 99.829430,79.405525 100.965988,75.824547 
z"/>
<path fill="#A7D9DD" opacity="1.000000" stroke="none" 
	d="
M40.892929,171.482117 
	C41.290840,170.080658 41.688755,168.679199 42.522270,166.812988 
	C45.271339,166.283630 47.584805,166.219009 50.138603,166.223907 
	C50.544182,166.315933 50.709438,166.338455 50.898186,166.731537 
	C50.899544,168.088669 50.877415,169.075226 50.494072,170.038544 
	C48.524048,169.500778 46.915234,168.986252 44.795654,168.308380 
	C44.112629,170.608780 43.456978,172.816971 42.833218,174.917770 
	C44.599842,175.837952 45.846798,176.487457 46.832794,177.338577 
	C45.053463,177.389328 43.535088,177.238464 42.016716,177.087585 
	C41.697971,176.583588 41.379227,176.079575 41.043121,174.913513 
	C40.981480,173.328354 40.937202,172.405228 40.892929,171.482117 
z"/>
<path fill="#0D428A" opacity="1.000000" stroke="none" 
	d="
M66.930214,257.589478 
	C67.542786,257.064301 68.163177,256.980164 69.441513,256.928833 
	C70.666695,257.329834 71.233925,257.698029 71.801147,258.066223 
	C71.724838,258.389008 71.648529,258.711823 71.518173,259.450867 
	C71.602142,260.336151 71.740166,260.805176 71.878189,261.274170 
	C71.890060,261.678497 71.901932,262.082825 72.015198,263.125671 
	C72.181976,264.489380 72.247353,265.214600 72.312729,265.939789 
	C72.208336,266.122772 72.103951,266.305725 71.820343,266.748657 
	C70.508270,267.536438 69.375420,268.064178 66.938026,269.199707 
	C66.938026,264.894043 66.938026,261.462250 66.930214,257.589478 
z"/>
<path fill="#F7F2E8" opacity="1.000000" stroke="none" 
	d="
M108.874496,213.994568 
	C108.592392,212.891144 108.310295,211.787720 108.004768,210.034698 
	C107.677315,208.893631 107.373291,208.402176 107.069267,207.910721 
	C106.066002,204.190857 105.062737,200.471008 104.170853,196.352600 
	C105.233925,196.747681 106.816101,197.397995 107.034409,198.358337 
	C108.396263,204.349152 109.453110,210.409332 110.080658,216.510101 
	C109.325035,215.713989 109.099770,214.854279 108.874496,213.994568 
z"/>
<path fill="#66686B" opacity="1.000000" stroke="none" 
	d="
M41.876045,177.480164 
	C43.535088,177.238464 45.053463,177.389328 47.210720,177.340118 
	C48.860840,177.097900 49.872074,177.055756 50.973423,177.262299 
	C51.141617,177.669113 51.219696,177.827225 51.211391,178.281860 
	C50.945004,179.151108 50.764999,179.723831 50.584991,180.296555 
	C50.584991,180.296555 50.445049,180.434387 50.154526,180.677765 
	C49.406010,181.550995 48.948017,182.180832 48.490025,182.810684 
	C45.413826,182.292755 40.657024,184.073746 41.876045,177.480164 
z"/>
<path fill="#FBF7ED" opacity="1.000000" stroke="none" 
	d="
M64.009331,77.919769 
	C61.253384,78.938560 58.497437,79.957359 55.363522,80.969154 
	C57.202705,78.992943 59.234459,76.736488 61.696823,75.147202 
	C63.598972,73.919495 66.040932,73.528130 69.048424,72.485733 
	C68.727448,72.025757 69.251366,72.776566 69.688934,74.090294 
	C68.197083,75.681206 66.791573,76.709190 65.154831,77.594086 
	C64.618851,77.607246 64.314087,77.763504 64.009331,77.919769 
z"/>
<path fill="#F7F2E8" opacity="1.000000" stroke="none" 
	d="
M69.788452,45.063457 
	C70.834564,45.278900 71.608994,45.601810 72.694763,46.040165 
	C72.286362,48.204819 71.566628,50.254032 70.746689,52.687592 
	C69.409615,54.017715 68.172745,54.963490 66.968857,55.884045 
	C64.272133,51.664032 64.450745,50.759064 69.788452,45.063457 
M69.472092,49.596088 
	C69.472092,49.596088 69.403198,49.479603 69.472092,49.596088 
z"/>
<path fill="#F7F2E8" opacity="1.000000" stroke="none" 
	d="
M62.124634,188.099014 
	C62.921555,190.925079 63.718475,193.751144 64.743530,196.857788 
	C64.925194,198.838425 64.878723,200.538467 64.718430,202.655853 
	C64.249504,203.050964 63.894405,203.028717 63.271370,202.996307 
	C61.900276,198.374420 60.770321,193.768600 59.752129,189.138199 
	C59.681583,188.817398 60.442879,188.313690 61.338776,187.854523 
	C61.860214,187.813995 62.124634,188.099014 62.124634,188.099014 
z"/>
<path fill="#F0B687" opacity="1.000000" stroke="none" 
	d="
M134.123932,115.016655 
	C134.083786,115.458145 134.043655,115.899628 133.747177,116.894180 
	C131.311508,121.280975 129.132187,125.114708 126.952866,128.948441 
	C126.952873,128.948441 126.999504,129.000000 126.698662,129.082947 
	C125.708221,129.537445 125.018623,129.909012 124.238289,130.205353 
	C124.147552,130.130157 123.976433,129.976456 124.021927,129.628143 
	C126.789742,123.736351 129.512054,118.192863 132.485260,112.825294 
	C133.198746,113.673027 133.661331,114.344841 134.123932,115.016655 
z"/>
<path fill="#3671AF" opacity="1.000000" stroke="none" 
	d="
M65.386055,77.737175 
	C66.791573,76.709190 68.197083,75.681206 69.808090,74.402771 
	C70.399132,74.141716 70.784668,74.131104 71.487167,74.344131 
	C71.804123,74.567780 71.954445,74.970055 71.971001,74.975464 
	C71.987556,74.980881 71.973526,74.958206 71.694878,75.258263 
	C71.335335,78.693359 71.254440,81.828400 70.882111,84.782196 
	C69.054855,83.385056 67.519058,82.169151 65.661255,80.926590 
	C65.126373,80.866974 64.913513,80.834000 64.774246,80.489815 
	C65.027245,79.364792 65.206650,78.550980 65.386055,77.737175 
z"/>
<path fill="#FBF5EA" opacity="1.000000" stroke="none" 
	d="
M127.349304,128.967651 
	C129.132187,125.114708 131.311508,121.280975 133.756805,117.227264 
	C135.926147,122.467514 132.967529,128.113983 127.349304,128.967651 
z"/>
<path fill="#1A5797" opacity="1.000000" stroke="none" 
	d="
M104.506119,256.987915 
	C104.902466,260.790070 102.656570,265.133636 106.924942,269.002747 
	C106.908569,269.911255 106.872528,270.127045 106.836479,270.342865 
	C105.445427,269.622864 104.054375,268.902863 102.327438,268.143097 
	C101.664406,267.036255 101.337265,265.969147 101.053116,264.541992 
	C102.119003,261.826538 103.141891,259.471161 104.506119,256.987915 
z"/>
<path fill="#F9F8F2" opacity="1.000000" stroke="none" 
	d="
M108.774048,78.589127 
	C108.236794,78.219856 108.083000,77.924919 107.891922,77.371475 
	C108.677284,75.723007 109.534599,74.314980 111.090134,71.760208 
	C110.995911,71.684784 112.417091,72.278023 112.875778,73.302277 
	C113.846329,75.469574 114.314384,77.861908 115.005867,80.549637 
	C113.056412,80.185402 111.089622,79.433464 108.774048,78.589127 
z"/>
<path fill="#FBF7ED" opacity="1.000000" stroke="none" 
	d="
M40.564407,171.331558 
	C40.937202,172.405228 40.981480,173.328354 40.991142,174.604630 
	C39.472641,174.413742 37.988754,173.869690 36.111076,173.181274 
	C35.470135,174.057739 34.666378,175.156860 33.838810,176.288528 
	C33.510040,175.989182 33.079334,175.681976 33.113586,175.615952 
	C34.434082,173.070267 35.797108,170.546661 37.528858,168.002472 
	C38.680767,169.050201 39.458328,170.115601 40.564407,171.331558 
z"/>
<path fill="#FBF5EA" opacity="1.000000" stroke="none" 
	d="
M134.440720,114.954803 
	C133.661331,114.344841 133.198746,113.673027 132.463287,112.666901 
	C132.190430,112.332596 132.084671,112.026413 132.078262,111.699165 
	C131.776581,110.804901 131.481308,110.237892 131.201462,109.503128 
	C131.216888,109.335381 131.134735,109.008644 131.123611,108.623848 
	C130.705948,106.510910 130.299393,104.782761 129.892853,103.054619 
	C131.138000,103.161606 132.383148,103.268585 132.661972,103.292542 
	C133.770889,107.117355 134.721710,110.240936 135.536209,113.399666 
	C135.640381,113.803627 135.034470,114.390694 134.440720,114.954803 
z"/>
<path fill="#F7F2E8" opacity="1.000000" stroke="none" 
	d="
M72.992188,66.291588 
	C74.814140,67.209824 76.582115,68.495911 78.632240,70.277771 
	C77.933640,71.559494 76.952896,72.345459 75.614471,73.089874 
	C74.540779,73.096764 73.824760,73.145187 73.108734,73.193611 
	C73.051895,71.015556 72.995056,68.837494 72.992188,66.291588 
z"/>
<path fill="#F0B687" opacity="1.000000" stroke="none" 
	d="
M95.084709,222.882721 
	C94.295998,221.255142 93.792114,219.447601 93.116257,217.317566 
	C92.956749,216.248444 92.969231,215.501831 92.924644,214.385742 
	C93.004745,212.518280 93.141922,211.020294 93.825195,209.246948 
	C94.585762,208.979614 94.800240,208.987610 95.012039,209.414093 
	C95.329681,212.552658 95.650002,215.272766 95.970322,217.992859 
	C95.770058,219.562836 95.569801,221.132797 95.084709,222.882721 
z"/>
<path fill="#F0B687" opacity="1.000000" stroke="none" 
	d="
M125.902130,95.127594 
	C126.955673,97.472855 128.009216,99.818115 129.038681,102.571823 
	C129.014587,102.980270 128.896759,103.074341 128.601410,102.902359 
	C126.205696,99.820168 124.105347,96.909966 122.064590,93.647141 
	C122.196182,93.067238 122.268188,92.839958 122.636780,92.720894 
	C123.922958,93.595268 124.912544,94.361427 125.902130,95.127594 
z"/>
<path fill="#FBF5EA" opacity="1.000000" stroke="none" 
	d="
M113.076462,142.060745 
	C112.878304,141.764771 112.882477,141.322906 113.238480,141.025299 
	C116.373810,138.462021 119.153145,136.196365 121.974380,133.974182 
	C122.016281,134.017639 122.098877,134.105698 122.098877,134.105698 
	C120.933395,138.590973 116.919739,142.343903 113.076462,142.060745 
z"/>
<path fill="#F7B180" opacity="1.000000" stroke="none" 
	d="
M108.522057,214.072754 
	C109.099770,214.854279 109.325035,215.713989 109.808517,216.785583 
	C110.067505,217.740891 110.068275,218.484344 110.139435,219.593369 
	C110.170418,223.665817 110.130997,227.372696 110.041222,231.538086 
	C109.383789,226.048035 108.776703,220.099487 108.522057,214.072754 
z"/>
<path fill="#FBF7ED" opacity="1.000000" stroke="none" 
	d="
M126.067596,94.811111 
	C124.912544,94.361427 123.922958,93.595268 122.596405,92.558609 
	C122.259430,92.288116 122.115250,91.982498 122.115250,91.982498 
	C121.745697,91.213821 121.376137,90.445152 120.956711,89.359329 
	C123.271500,89.574326 125.636162,90.106468 128.625656,90.779228 
	C128.149826,91.518135 127.191444,93.006386 126.067596,94.811111 
z"/>
<path fill="#F9F8F2" opacity="1.000000" stroke="none" 
	d="
M72.111771,257.879669 
	C71.233925,257.698029 70.666695,257.329834 69.753494,256.951813 
	C69.741722,255.628967 70.075912,254.315964 70.637238,252.869385 
	C72.451393,253.126526 74.038414,253.517258 76.443466,254.109406 
	C74.613754,255.740097 73.518066,256.716614 72.111771,257.879669 
z"/>
<path fill="#FBF7ED" opacity="1.000000" stroke="none" 
	d="
M37.797890,156.937744 
	C37.623089,157.962494 37.106586,158.822769 36.350624,159.862946 
	C33.882877,157.608353 32.430843,154.977539 33.435619,151.165619 
	C35.035290,153.396759 36.245735,155.085007 37.797890,156.937744 
z"/>
<path fill="#FBF5EA" opacity="1.000000" stroke="none" 
	d="
M124.329025,130.280563 
	C125.018623,129.909012 125.708221,129.537445 126.672867,129.059036 
	C127.455185,130.732208 127.962440,132.512238 128.520859,134.471786 
	C126.593498,134.323349 124.731186,134.179932 122.483871,134.071106 
	C122.098877,134.105698 122.016281,134.017639 122.121521,133.694183 
	C122.927513,132.340668 123.628265,131.310608 124.329025,130.280563 
z"/>
<path fill="#F9F8F2" opacity="1.000000" stroke="none" 
	d="
M50.949638,180.522034 
	C50.764999,179.723831 50.945004,179.151108 51.542831,178.192993 
	C52.306847,176.538620 52.653042,175.269608 52.999619,174.000305 
	C53.000000,174.000000 53.000732,173.999390 53.000732,173.999390 
	C60.096951,175.623077 53.038441,178.402908 53.266884,180.786957 
	C52.435905,180.921463 51.875092,180.834488 50.949638,180.522034 
z"/>
<path fill="#FBF7ED" opacity="1.000000" stroke="none" 
	d="
M53.460205,81.958130 
	C52.756874,83.828644 51.646900,85.708923 50.270897,87.795700 
	C48.135170,84.532730 47.830288,81.853836 53.460205,81.958130 
z"/>
<path fill="#F7F2E8" opacity="1.000000" stroke="none" 
	d="
M70.650284,61.253246 
	C71.287109,62.081032 71.670097,63.128197 72.110199,64.524033 
	C71.434067,65.822495 70.700813,66.772285 69.879852,67.835678 
	C65.964096,65.168991 70.401688,63.533409 70.650284,61.253246 
z"/>
<path fill="#F9F8F2" opacity="1.000000" stroke="none" 
	d="
M79.407791,222.920593 
	C79.043182,220.948898 79.049141,218.900009 79.136505,216.418518 
	C82.097061,218.051712 81.548737,220.397614 79.407791,222.920593 
z"/>
<path fill="#FBFCFB" opacity="1.000000" stroke="none" 
	d="
M51.567844,190.770355 
	C51.526596,192.263611 51.263329,193.493088 51.000057,194.722580 
	C50.333511,194.493378 49.666962,194.264160 49.000412,194.034958 
	C49.782215,192.858826 50.564018,191.682709 51.567844,190.770355 
z"/>
<path fill="#FBF7ED" opacity="1.000000" stroke="none" 
	d="
M41.780441,149.216034 
	C41.966362,150.621826 41.853939,152.271667 41.395351,154.005646 
	C41.193493,152.546539 41.337791,151.003311 41.780441,149.216034 
z"/>
<path fill="#F7F2E8" opacity="1.000000" stroke="none" 
	d="
M112.163094,189.149399 
	C111.630638,187.929428 111.408791,186.781265 111.186935,185.633118 
	C111.725563,185.620255 112.264191,185.607407 112.802818,185.594559 
	C112.693108,186.803436 112.583405,188.012329 112.163094,189.149399 
z"/>
<path fill="#F9F8F2" opacity="1.000000" stroke="none" 
	d="
M83.405067,207.980927 
	C84.220749,207.785004 84.983925,207.910690 85.747093,208.036377 
	C85.659523,208.472961 85.571953,208.909515 85.484375,209.346085 
	C84.773773,208.998230 84.063171,208.650375 83.405067,207.980927 
z"/>
<path fill="#F7F2E8" opacity="1.000000" stroke="none" 
	d="
M104.775833,190.300629 
	C104.794487,189.520325 104.896606,189.080383 105.070160,188.308609 
	C105.343979,189.281250 105.546356,190.585709 105.412529,191.958191 
	C105.003990,191.564468 104.931648,191.102722 104.775833,190.300629 
z"/>
<path fill="#F0B687" opacity="1.000000" stroke="none" 
	d="
M129.701691,103.014145 
	C130.299393,104.782761 130.705948,106.510910 130.777939,108.464050 
	C129.927841,106.817482 129.412292,104.945908 128.896759,103.074341 
	C128.896759,103.074341 129.014587,102.980270 129.072662,102.930946 
	C129.130737,102.881622 129.510544,102.973663 129.701691,103.014145 
z"/>
<path fill="#D7B599" opacity="1.000000" stroke="none" 
	d="
M72.939224,73.422287 
	C73.824760,73.145187 74.540779,73.096764 75.545151,73.433350 
	C74.540482,74.202255 73.247459,74.586151 71.954445,74.970055 
	C71.954445,74.970055 71.804123,74.567780 71.776138,74.354225 
	C72.088676,73.977432 72.429192,73.814194 72.939224,73.422287 
z"/>
<path fill="#F9F8F2" opacity="1.000000" stroke="none" 
	d="
M86.505455,221.332001 
	C85.963493,220.988251 85.638474,220.429871 85.313446,219.871490 
	C85.591438,219.744339 85.869431,219.617188 86.147415,219.490021 
	C86.339081,220.032486 86.530739,220.574951 86.505455,221.332001 
z"/>
<path fill="#1B5DAA" opacity="1.000000" stroke="none" 
	d="
M64.340927,246.466263 
	C64.730614,247.152985 64.812103,247.682327 64.751770,248.379120 
	C64.417549,247.800690 64.225143,247.054779 64.340927,246.466263 
z"/>
<path fill="#FBF7ED" opacity="1.000000" stroke="none" 
	d="
M35.649330,162.003769 
	C35.990452,161.998215 36.119671,162.443787 36.132370,162.674866 
	C35.303299,163.402466 34.461521,163.899017 33.619743,164.395554 
	C33.409393,164.127258 33.199043,163.858963 32.988697,163.590668 
	C33.761864,163.063553 34.535034,162.536438 35.649330,162.003769 
z"/>
<path fill="#FBF7ED" opacity="1.000000" stroke="none" 
	d="
M49.435051,95.041504 
	C49.839413,95.425713 49.940483,95.880318 50.039055,96.910110 
	C50.036560,97.485298 49.982155,97.973259 49.982155,97.973259 
	C49.982155,97.973259 49.532227,98.002350 49.307899,98.021957 
	C49.099636,97.065002 49.115700,96.088455 49.435051,95.041504 
z"/>
<path fill="#F9F8F2" opacity="1.000000" stroke="none" 
	d="
M78.389641,258.464050 
	C77.941490,258.348328 77.666740,258.066071 77.413239,257.765869 
	C77.406738,257.758179 77.633148,257.553772 77.750923,257.441132 
	C78.022560,257.725800 78.294197,258.010437 78.389641,258.464050 
z"/>
<path fill="#F9F8F2" opacity="1.000000" stroke="none" 
	d="
M78.610809,251.536255 
	C79.058296,251.651764 79.332581,251.933609 79.585701,252.233322 
	C79.592155,252.240936 79.366089,252.444946 79.248459,252.557373 
	C78.977264,252.273209 78.706062,251.989059 78.610809,251.536255 
z"/>
<path fill="#F7F2E8" opacity="1.000000" stroke="none" 
	d="
M64.794495,207.138657 
	C65.153214,207.559753 65.281479,208.124176 65.215302,208.845520 
	C64.868584,208.428955 64.716309,207.855453 64.794495,207.138657 
z"/>
<path fill="#F9F8F2" opacity="1.000000" stroke="none" 
	d="
M48.890621,182.830444 
	C48.948017,182.180832 49.406010,181.550995 50.101044,180.760132 
	C49.989128,181.349472 49.640171,182.099838 48.890621,182.830444 
z"/>
<path fill="#F7F2E8" opacity="1.000000" stroke="none" 
	d="
M108.500916,185.473282 
	C108.910667,185.400131 109.163391,185.480911 109.416122,185.561676 
	C109.133247,185.838104 108.850380,186.114532 108.567513,186.390961 
	C108.492973,186.136383 108.418434,185.881790 108.500916,185.473282 
z"/>
<path fill="#F9F8F2" opacity="1.000000" stroke="none" 
	d="
M72.511948,265.738831 
	C72.247353,265.214600 72.181976,264.489380 72.150116,263.401825 
	C72.359474,263.872253 72.535316,264.705048 72.511948,265.738831 
z"/>
<path fill="#FBF7ED" opacity="1.000000" stroke="none" 
	d="
M119.009735,85.670029 
	C118.650070,85.553108 118.299599,85.104607 117.895164,84.366440 
	C118.031731,84.053642 118.222275,84.030510 118.706535,84.003395 
	C119.000244,83.999420 119.020309,84.011642 119.020309,84.011642 
	C119.019852,84.453911 119.019394,84.896179 119.009735,85.670029 
z"/>
<path fill="#F0B687" opacity="1.000000" stroke="none" 
	d="
M110.098328,143.806152 
	C109.870087,144.098190 109.698730,144.080017 109.269455,144.045929 
	C109.228233,143.474869 109.444931,142.919739 109.973145,142.311951 
	C110.241501,142.671509 110.198357,143.083710 110.098328,143.806152 
z"/>
<path fill="#F7F2E8" opacity="1.000000" stroke="none" 
	d="
M106.369110,180.899872 
	C106.170937,180.832474 106.114601,180.667862 106.127289,180.251556 
	C106.301193,180.267456 106.406075,180.535065 106.369110,180.899872 
z"/>
<path fill="#F7F2E8" opacity="1.000000" stroke="none" 
	d="
M64.660416,232.138184 
	C64.740479,232.297729 64.622391,232.595444 64.282364,233.016418 
	C64.086411,232.801620 64.220360,232.513840 64.660416,232.138184 
z"/>
<path fill="#F0B687" opacity="1.000000" stroke="none" 
	d="
M110.513054,142.365601 
	C110.525017,142.173248 110.698555,142.006454 110.925316,142.054779 
	C110.978539,142.269913 110.674637,142.391159 110.513054,142.365601 
z"/>
<path fill="#F9F8F2" opacity="1.000000" stroke="none" 
	d="
M71.893898,260.822693 
	C71.740166,260.805176 71.602142,260.336151 71.647156,259.669189 
	C71.856667,259.771240 71.883141,260.071228 71.893898,260.822693 
z"/>
<path fill="#FBFCFB" opacity="1.000000" stroke="none" 
	d="
M50.449112,184.532700 
	C50.415684,184.476913 50.482540,184.588486 50.449112,184.532700 
z"/>
<path fill="#F9F8F2" opacity="1.000000" stroke="none" 
	d="
M118.994102,83.989334 
	C119.090874,83.950829 119.193787,83.922401 119.158501,83.952805 
	C119.020309,84.011642 119.000244,83.999420 118.994102,83.989334 
z"/>
<path fill="#0F57B0" opacity="1.000000" stroke="none" 
	d="
M99.115768,98.740463 
	C99.539421,99.147469 99.963066,99.554482 100.681320,99.990723 
	C100.975937,100.019951 101.301262,100.183647 101.637909,100.473495 
	C102.666740,101.876671 103.358932,102.989990 104.125793,104.413300 
	C105.423195,105.820908 106.645935,106.918510 107.911278,108.389099 
	C105.272598,113.531029 101.813393,118.043510 100.132370,123.142250 
	C98.503510,128.082733 98.702667,133.625916 98.098984,138.904388 
	C97.563477,139.516327 97.027969,140.128265 95.864410,140.926163 
	C94.317894,142.386658 93.399414,143.661194 92.308144,144.778793 
	C91.773697,144.331009 91.412056,144.040161 90.917328,143.511673 
	C89.191628,143.555237 87.598999,143.836411 86.050827,143.774536 
	C88.041725,141.384308 89.988190,139.337112 91.854958,137.373734 
	C90.755714,135.654861 89.907784,134.328964 89.056808,132.767960 
	C89.053764,132.532867 89.072006,132.062988 89.429321,131.981598 
	C91.047302,128.217911 93.657310,124.351372 93.186760,120.905487 
	C92.722031,117.502220 89.142967,114.524216 86.936378,111.368584 
	C93.769478,110.153351 96.932930,104.924065 99.115768,98.740463 
z"/>
<path fill="#F9AD6C" opacity="1.000000" stroke="none" 
	d="
M121.757309,92.036438 
	C122.115250,91.982498 122.259430,92.288116 122.299805,92.450394 
	C122.268188,92.839958 122.196182,93.067238 121.778305,93.911377 
	C121.159584,96.121552 120.886726,97.714859 120.463242,100.187790 
	C116.040405,100.457947 111.519699,100.734077 106.998604,101.005768 
	C106.998215,101.001320 106.988243,100.993950 106.988235,100.993942 
	C108.169212,100.111198 109.691727,98.235199 110.476387,98.505005 
	C116.061852,100.425591 118.345947,97.174683 120.252510,92.938042 
	C120.422623,92.560005 121.007248,92.368507 121.757309,92.036438 
z"/>
<path fill="#EA935D" opacity="1.000000" stroke="none" 
	d="
M104.051132,104.103310 
	C103.358932,102.989990 102.666740,101.876671 101.819794,100.464691 
	C103.241219,100.343254 104.817398,100.520485 106.690918,100.845825 
	C106.988243,100.993950 106.998215,101.001320 107.037910,101.323471 
	C107.754829,102.432915 108.432053,103.220207 108.884430,104.255920 
	C107.123436,104.370667 105.587280,104.236992 104.051132,104.103310 
z"/>
<path fill="#FDAC6C" opacity="1.000000" stroke="none" 
	d="
M96.293289,217.972214 
	C95.650002,215.272766 95.329681,212.552658 95.291595,209.213989 
	C100.893585,204.489761 99.841660,199.320709 98.006248,194.020905 
	C99.094475,193.673218 100.182701,193.325531 101.638237,192.974243 
	C102.645790,198.073029 103.286026,203.175415 103.934593,208.344177 
	C102.761482,208.578384 100.940659,208.941910 99.062576,210.092255 
	C99.004150,212.919952 99.002968,214.960800 99.001785,217.001663 
	C98.206612,217.318298 97.411438,217.634933 96.293289,217.972214 
z"/>
<path fill="#F7B180" opacity="1.000000" stroke="none" 
	d="
M99.275032,217.238708 
	C99.002968,214.960800 99.004150,212.919952 99.007095,210.442139 
	C101.451096,209.804855 102.929420,210.254700 103.100029,213.360367 
	C103.343803,217.797714 101.069893,222.859970 105.771004,226.523636 
	C106.116699,226.793045 105.231644,228.641754 104.758728,230.326385 
	C100.568886,226.361633 98.620125,222.479279 99.275032,217.238708 
z"/>
<path fill="#F0B687" opacity="1.000000" stroke="none" 
	d="
M96.906754,228.868622 
	C96.265427,228.063095 95.672874,226.861755 95.085861,225.321655 
	C95.712784,226.146194 96.334160,227.309509 96.906754,228.868622 
z"/>
<path fill="#F7B180" opacity="1.000000" stroke="none" 
	d="
M107.059708,208.215424 
	C107.373291,208.402176 107.677315,208.893631 107.968170,209.687057 
	C107.653381,209.499390 107.351768,209.009750 107.059708,208.215424 
z"/>
<path fill="#F0B687" opacity="1.000000" stroke="none" 
	d="
M97.931595,232.846985 
	C97.626404,232.645737 97.334572,232.135651 97.067604,231.318314 
	C97.376617,231.520081 97.660782,232.029099 97.931595,232.846985 
z"/>
<path fill="#21201F" opacity="1.000000" stroke="none" 
	d="
M91.050407,143.749298 
	C91.412056,144.040161 91.773697,144.331009 92.401291,145.143021 
	C92.899864,148.594513 93.132500,151.524872 93.376945,154.603943 
	C94.547707,154.424393 95.840248,154.226181 97.132790,154.027954 
	C97.749252,157.183029 98.585289,160.315186 98.917885,163.499908 
	C99.225143,166.442017 98.916725,169.443069 99.017815,172.413452 
	C99.136681,175.906296 98.865746,179.077225 92.965279,179.707870 
	C100.260353,182.488297 94.851334,185.190781 95.075592,187.445068 
	C88.983559,190.181442 88.456100,185.246811 86.264145,182.055847 
	C85.145615,179.369690 84.405975,176.752426 83.278008,173.576538 
	C83.062820,166.704544 77.415649,166.683762 73.530792,163.911346 
	C73.294418,165.251999 73.050377,166.011459 73.043854,166.772980 
	C72.996117,172.347458 73.028831,177.922699 72.968414,183.496964 
	C72.932770,186.785614 71.308289,188.365631 67.907600,188.018814 
	C66.590714,187.884491 65.245201,188.030853 63.912727,188.049362 
	C63.912727,188.049362 63.992599,188.050049 63.979271,187.770523 
	C63.294010,186.995529 62.622074,186.500061 61.965019,185.572922 
	C62.231255,183.537735 62.847843,181.891220 62.665009,180.338837 
	C62.131001,175.804764 61.277950,171.308273 60.549942,166.797043 
	C60.599312,166.387421 60.648682,165.977783 61.194153,165.229370 
	C61.743530,163.237930 61.796799,161.585312 61.850071,159.932678 
	C61.856697,159.015594 61.863323,158.098526 61.767838,156.824356 
	C61.665722,156.467270 61.594650,156.420471 61.764648,155.999908 
	C62.685902,153.145935 63.437160,150.712540 64.391350,148.458130 
	C64.731651,148.753784 64.869026,148.870453 65.005142,149.394470 
	C65.360413,151.451065 65.716934,153.100327 66.073463,154.749603 
	C66.715233,154.665146 67.357010,154.580688 67.998779,154.496216 
	C67.998779,152.665054 67.998779,150.833878 68.375183,148.998962 
	C69.504288,149.006073 70.256973,149.016922 71.006981,149.422913 
	C70.967712,150.814667 70.680618,151.885544 70.949188,152.791763 
	C71.436760,154.436981 72.254929,155.984222 72.935127,157.572357 
	C74.572151,156.682373 76.303772,155.922607 77.798477,154.836731 
	C78.376266,154.416992 78.416870,153.257812 79.028755,151.494385 
	C79.846680,153.889343 80.316711,155.265640 81.042282,157.390182 
	C81.728065,155.691467 82.080521,154.818436 82.193794,154.537842 
	C83.327469,155.376053 84.544991,156.276260 85.762512,157.176468 
	C86.054710,156.856583 86.346916,156.536697 86.639122,156.216812 
	C85.417336,154.127457 84.195557,152.038086 83.234146,149.688843 
	C87.456734,149.456192 88.970779,146.226532 91.050407,143.749298 
z"/>
<path fill="#0F0D0D" opacity="1.000000" stroke="none" 
	d="
M64.180679,188.356094 
	C65.245201,188.030853 66.590714,187.884491 67.907600,188.018814 
	C71.308289,188.365631 72.932770,186.785614 72.968414,183.496964 
	C73.028831,177.922699 72.996117,172.347458 73.043854,166.772980 
	C73.050377,166.011459 73.294418,165.251999 73.530792,163.911346 
	C77.415649,166.683762 83.062820,166.704544 82.934006,173.402161 
	C82.026024,177.716431 81.208618,181.686829 80.049751,185.554916 
	C79.632484,186.947723 78.394249,188.094574 77.279922,189.597961 
	C72.835670,189.449127 68.642159,189.055984 64.180679,188.356094 
z"/>
<path fill="#F6AD75" opacity="1.000000" stroke="none" 
	d="
M97.699005,194.167114 
	C99.841660,199.320709 100.893585,204.489761 95.294273,208.795517 
	C94.800240,208.987610 94.585762,208.979614 94.048233,208.949310 
	C93.787949,208.195099 93.850723,207.463211 94.311966,206.317352 
	C94.752312,204.914108 94.794189,203.924820 94.836067,202.935532 
	C94.628052,201.524918 94.420036,200.114288 94.119408,198.355103 
	C95.148453,196.775482 96.270111,195.544403 97.699005,194.167114 
z"/>
<path fill="#F0B687" opacity="1.000000" stroke="none" 
	d="
M94.608833,203.174866 
	C94.794189,203.924820 94.752312,204.914108 94.385139,205.956924 
	C94.167091,205.145035 94.274345,204.279602 94.608833,203.174866 
z"/>
<path fill="#F7FAF6" opacity="1.000000" stroke="none" 
	d="
M64.188423,148.279144 
	C63.437160,150.712540 62.685902,153.145935 61.639034,155.467438 
	C60.399048,153.356888 59.454666,151.358215 58.513386,149.366119 
	C55.310364,149.778976 52.980373,150.399765 54.535851,154.257324 
	C54.827950,154.981720 54.206276,156.074570 54.006271,156.997391 
	C53.653595,157.829407 53.300922,158.661423 52.633911,159.666214 
	C50.977116,158.903625 49.634663,157.968262 48.191311,156.703888 
	C48.040180,155.920044 47.989941,155.465225 47.939701,155.010391 
	C47.996815,153.897003 48.053928,152.783600 48.209206,151.058472 
	C48.557396,149.639587 48.807415,148.832428 49.297356,147.849243 
	C49.655212,147.103165 49.773151,146.533142 49.891090,145.963120 
	C50.947708,142.626755 52.004326,139.290375 53.396069,135.388794 
	C54.167526,133.783676 55.003674,132.733109 54.976269,131.705582 
	C54.776199,124.204178 58.252129,117.858391 61.399124,111.601074 
	C62.333790,113.479675 63.005035,115.074867 63.731926,117.054276 
	C64.271675,125.926537 64.755760,134.414581 65.131332,143.292603 
	C64.744690,145.214767 64.466560,146.746948 64.188423,148.279144 
z"/>
<path fill="#101816" opacity="1.000000" stroke="none" 
	d="
M60.290855,167.139664 
	C61.277950,171.308273 62.131001,175.804764 62.665009,180.338837 
	C62.847843,181.891220 62.231255,183.537735 61.699253,185.573212 
	C61.241081,186.000412 61.063560,185.995651 60.886036,185.990906 
	C60.601280,179.821365 60.316525,173.651825 60.290855,167.139664 
z"/>
<path fill="#F7F2E8" opacity="1.000000" stroke="none" 
	d="
M54.480919,156.998596 
	C54.206276,156.074570 54.827950,154.981720 54.535851,154.257324 
	C52.980373,150.399765 55.310364,149.778976 58.513386,149.366119 
	C59.454666,151.358215 60.399048,153.356888 61.469040,155.888000 
	C61.594650,156.420471 61.665722,156.467270 61.701286,156.482895 
	C59.476421,156.665619 57.215996,156.832718 54.480919,156.998596 
z"/>
<path fill="#D7B599" opacity="1.000000" stroke="none" 
	d="
M48.292206,157.032898 
	C49.634663,157.968262 50.977116,158.903625 52.600792,160.024048 
	C52.876205,163.744476 52.870396,167.279816 52.574165,171.332092 
	C51.891571,171.907455 51.499397,171.965927 51.072491,171.695923 
	C50.976936,170.932236 50.916115,170.497025 50.855286,170.061798 
	C50.877415,169.075226 50.899544,168.088669 50.967545,166.313538 
	C50.008102,163.344666 49.002789,161.164337 48.036942,158.656738 
	C48.148346,157.897293 48.220276,157.465088 48.292206,157.032898 
z"/>
<path fill="#101816" opacity="1.000000" stroke="none" 
	d="
M61.501953,160.116028 
	C61.796799,161.585312 61.743530,163.237930 61.325062,164.948715 
	C61.024525,163.437714 61.089180,161.868546 61.501953,160.116028 
z"/>
<path fill="#0F0D0D" opacity="1.000000" stroke="none" 
	d="
M60.853714,186.319672 
	C61.063560,185.995651 61.241081,186.000412 61.684372,186.004883 
	C62.622074,186.500061 63.294010,186.995529 63.954483,187.801834 
	C63.538151,188.090683 63.133282,188.068695 62.426525,188.072876 
	C62.124634,188.099014 61.860214,187.813995 61.666283,187.797668 
	C61.255363,187.403702 61.038380,187.026077 60.853714,186.319672 
z"/>
<path fill="#F9F8F2" opacity="1.000000" stroke="none" 
	d="
M51.107224,172.024399 
	C51.499397,171.965927 51.891571,171.907455 52.570641,171.772217 
	C52.901642,172.207672 52.945747,172.719925 52.995293,173.615784 
	C53.000732,173.999390 53.000000,174.000000 52.698296,174.002182 
	C51.996544,174.011078 51.596493,174.017807 51.144318,173.693359 
	C51.097202,172.916260 51.102211,172.470322 51.107224,172.024399 
z"/>
<path fill="#EEB382" opacity="1.000000" stroke="none" 
	d="
M97.086052,153.668182 
	C95.840248,154.226181 94.547707,154.424393 93.376945,154.603943 
	C93.132500,151.524872 92.899864,148.594513 92.574081,145.299942 
	C93.399414,143.661194 94.317894,142.386658 95.594810,141.071808 
	C96.534386,145.222336 98.371437,147.900116 103.581894,147.342346 
	C103.998734,148.097900 103.997940,148.528000 103.997147,148.958084 
	C102.527199,149.405975 101.057251,149.853867 99.377869,150.549942 
	C98.458725,151.634888 97.749016,152.471649 97.086052,153.668182 
z"/>
<path fill="#F6AE7B" opacity="1.000000" stroke="none" 
	d="
M91.032730,62.074905 
	C91.385216,63.670551 91.967140,65.560074 91.796219,67.378845 
	C91.514114,70.380707 92.469254,72.349274 95.393875,73.944901 
	C93.658142,77.671143 91.833939,80.829132 90.002312,83.992645 
	C89.994896,83.998161 89.989372,84.012695 89.677414,84.030899 
	C88.956902,84.130913 88.548332,84.212738 88.103561,84.196449 
	C88.067352,84.098335 87.952263,83.923660 87.786934,83.687408 
	C87.073051,83.315651 86.524506,83.180145 85.981262,83.023392 
	C85.986572,83.002136 85.963631,83.044373 85.882584,82.863647 
	C85.545174,82.836708 85.288803,82.990501 85.046661,83.349533 
	C85.060890,83.554771 85.071899,83.966087 84.681610,83.975502 
	C79.856270,83.493515 79.234581,87.021736 77.800507,89.858810 
	C77.290611,89.628731 77.086830,89.397583 76.978806,88.712860 
	C77.650925,86.897224 78.328110,85.471214 78.960716,84.025696 
	C79.372269,83.085281 80.322487,81.745354 79.998970,81.219177 
	C77.454147,77.080170 80.692108,75.249657 83.305679,72.863510 
	C85.419365,70.142921 87.232819,67.572990 89.046265,65.003052 
	C89.672142,64.114365 90.298035,63.225677 91.032730,62.074905 
z"/>
<path fill="#F9AD6C" opacity="1.000000" stroke="none" 
	d="
M83.005432,73.014153 
	C80.692108,75.249657 77.454147,77.080170 79.998970,81.219177 
	C80.322487,81.745354 79.372269,83.085281 78.960716,84.025696 
	C78.328110,85.471214 77.650925,86.897224 76.668922,88.675034 
	C75.931564,88.976135 75.517944,88.933716 74.907135,88.581947 
	C73.797806,83.834465 72.885666,79.396339 71.973526,74.958206 
	C71.973526,74.958206 71.987556,74.980881 71.971001,74.975464 
	C73.247459,74.586151 74.540482,74.202255 75.902817,73.474884 
	C76.952896,72.345459 77.933640,71.559494 78.927109,70.451118 
	C78.905952,65.754715 76.942253,61.185574 80.816696,57.348732 
	C83.254288,59.364025 85.127502,61.180328 87.000717,62.996632 
	C87.002541,63.446896 87.004372,63.897163 86.855560,64.982521 
	C85.133179,66.416206 83.561432,67.214806 82.129761,67.692200 
	C82.471535,66.121140 82.673233,64.871277 82.874931,63.621418 
	C82.258743,63.567760 81.642548,63.514107 81.026360,63.460453 
	C81.026360,64.982101 81.026360,66.503746 81.020645,68.391388 
	C81.678436,70.176300 82.341934,71.595230 83.005432,73.014153 
z"/>
<path fill="#EEB382" opacity="1.000000" stroke="none" 
	d="
M87.252106,62.777237 
	C85.127502,61.180328 83.254288,59.364025 81.189011,57.274624 
	C81.189339,55.711025 81.381729,54.420528 81.574120,53.130028 
	C82.172829,53.001904 82.771538,52.873779 83.370247,52.745655 
	C84.747993,56.016384 86.125748,59.287113 87.252106,62.777237 
z"/>
<path fill="#EA935D" opacity="1.000000" stroke="none" 
	d="
M83.305679,72.863510 
	C82.341934,71.595230 81.678436,70.176300 81.261322,68.389282 
	C81.507713,68.021194 81.989685,68.013397 81.989685,68.013397 
	C83.561432,67.214806 85.133179,66.416206 86.859940,65.320190 
	C87.465881,65.013062 87.916801,65.003349 88.706993,64.998352 
	C87.232819,67.572990 85.419365,70.142921 83.305679,72.863510 
z"/>
<path fill="#EEBA91" opacity="1.000000" stroke="none" 
	d="
M87.011009,44.643501 
	C85.758064,44.540131 84.453941,44.204990 83.103165,43.567104 
	C83.814499,42.860584 84.572495,42.456810 85.674919,42.284706 
	C86.292633,42.995113 86.565918,43.473850 86.839195,43.952583 
	C86.839195,43.952583 86.959824,44.411724 87.011009,44.643501 
z"/>
<path fill="#C2A19D" opacity="1.000000" stroke="none" 
	d="
M86.916313,43.666656 
	C86.565918,43.473850 86.292633,42.995113 85.996536,42.229794 
	C86.313614,42.422382 86.653519,42.901558 86.916313,43.666656 
z"/>
<path fill="#EA935D" opacity="1.000000" stroke="none" 
	d="
M61.135696,111.317657 
	C58.252129,117.858391 54.776199,124.204178 54.976269,131.705582 
	C55.003674,132.733109 54.167526,133.783676 53.388229,135.005676 
	C52.683964,130.747025 52.322662,126.306267 52.264267,121.279572 
	C54.028915,117.788269 55.490654,114.882912 56.965847,111.610062 
	C57.337555,109.127853 57.695808,107.013145 58.301517,105.003754 
	C59.037674,105.310806 59.526379,105.512543 60.106590,106.093842 
	C60.510628,108.088150 60.823162,109.702904 61.135696,111.317657 
z"/>
<path fill="#FDAC6C" opacity="1.000000" stroke="none" 
	d="
M49.057434,148.025284 
	C48.807415,148.832428 48.557396,149.639587 48.168205,150.734863 
	C42.598610,150.857422 43.688831,144.980560 43.591919,143.267197 
	C43.202438,136.381577 44.634937,129.392883 45.683563,122.206314 
	C46.129204,127.035530 46.188702,132.106277 46.479969,137.163681 
	C46.638947,139.924026 47.190544,142.661758 47.815430,146.017883 
	C48.396332,147.092468 48.726883,147.558884 49.057434,148.025284 
z"/>
<path fill="#FDAC6C" opacity="1.000000" stroke="none" 
	d="
M56.952400,111.977554 
	C55.490654,114.882912 54.028915,117.788269 52.246536,120.847748 
	C51.478291,120.817703 50.635075,120.621384 50.640305,120.451111 
	C50.822338,114.521217 51.158588,108.595291 51.278500,102.664856 
	C51.305717,101.318726 50.622154,99.958214 50.123955,98.288788 
	C49.982155,97.973259 50.036560,97.485298 50.113579,97.251953 
	C50.891930,97.009605 51.593262,97.000587 52.812199,97.238205 
	C53.885460,97.655815 54.441120,97.826790 54.996784,97.997772 
	C54.998009,98.164734 54.999237,98.331711 54.713593,99.017799 
	C54.126457,103.915672 53.761417,108.307587 56.952400,111.977554 
z"/>
<path fill="#EEBA91" opacity="1.000000" stroke="none" 
	d="
M49.297352,147.849243 
	C48.726883,147.558884 48.396332,147.092468 48.044193,146.326324 
	C48.438152,146.010391 48.853703,145.994217 49.580170,145.970581 
	C49.773151,146.533142 49.655212,147.103165 49.297352,147.849243 
z"/>
<path fill="#EEBA91" opacity="1.000000" stroke="none" 
	d="
M47.286926,113.899460 
	C47.102856,113.838646 47.064480,113.674438 47.036465,113.257607 
	C47.175426,113.268684 47.304028,113.532372 47.286926,113.899460 
z"/>
<path fill="#C2A19D" opacity="1.000000" stroke="none" 
	d="
M60.015087,105.714279 
	C59.526379,105.512543 59.037674,105.310806 58.140808,104.703522 
	C57.492332,103.206383 57.252018,102.114807 57.011703,101.023224 
	C58.683071,94.904961 60.338787,88.782303 62.050900,82.675461 
	C62.215485,82.088402 62.730728,81.599655 63.473846,80.972702 
	C63.864510,80.880135 64.005333,81.004890 63.966270,81.376358 
	C63.225609,83.782242 62.524014,85.816658 61.827129,87.877899 
	C61.831841,87.904732 61.885906,87.898041 61.611389,88.136353 
	C61.227631,89.572815 61.118385,90.770981 60.993759,91.945618 
	C60.978371,91.922096 60.923195,91.932892 60.669384,92.261673 
	C60.282078,96.965065 60.148582,101.339668 60.015087,105.714279 
z"/>
<path fill="#F8B077" opacity="1.000000" stroke="none" 
	d="
M56.967712,100.700043 
	C57.252018,102.114807 57.492332,103.206383 57.893356,104.598198 
	C57.695808,107.013145 57.337555,109.127853 56.965851,111.610062 
	C53.761417,108.307587 54.126457,103.915672 54.714024,99.268265 
	C55.642124,99.458694 56.282921,99.917786 56.967712,100.700043 
z"/>
<path fill="#FDAC6C" opacity="1.000000" stroke="none" 
	d="
M52.996666,95.020164 
	C49.022415,93.317322 51.545776,91.023277 52.871056,88.781219 
	C53.244961,90.594536 53.618870,92.407845 53.742989,94.611954 
	C53.493202,95.002739 52.996666,95.020164 52.996666,95.020164 
z"/>
<path fill="#F8B077" opacity="1.000000" stroke="none" 
	d="
M52.997307,95.348419 
	C52.996666,95.020164 53.493202,95.002739 53.741455,94.997864 
	C54.309723,95.781410 54.629738,96.569824 54.973270,97.678009 
	C54.441120,97.826790 53.885460,97.655815 53.164326,97.237381 
	C52.998550,96.552177 52.998249,96.114418 52.997307,95.348419 
z"/>
<path fill="#C2A19D" opacity="1.000000" stroke="none" 
	d="
M65.154831,77.594086 
	C65.206650,78.550980 65.027245,79.364792 64.602020,80.544937 
	C64.356209,80.911270 64.005333,81.004890 64.005333,81.004890 
	C64.005333,81.004890 63.864510,80.880135 63.790009,80.820099 
	C63.814327,80.053894 63.913143,79.347725 64.010651,78.280663 
	C64.314087,77.763504 64.618851,77.607246 65.154831,77.594086 
z"/>
<path fill="#0D428A" opacity="1.000000" stroke="none" 
	d="
M107.020035,270.642212 
	C106.872528,270.127045 106.908569,269.911255 106.969940,269.368835 
	C108.209465,268.543823 109.423660,268.045502 110.821060,267.272980 
	C112.706528,267.295441 114.408791,267.592072 116.476791,267.949738 
	C115.777832,269.482697 114.905960,271.941895 113.603424,272.196320 
	C111.627235,272.582306 109.351868,271.436615 107.020035,270.642212 
z"/>
<path fill="#3671AF" opacity="1.000000" stroke="none" 
	d="
M90.009727,83.987129 
	C91.833939,80.829132 93.658142,77.671143 95.611076,74.213570 
	C97.333443,74.379105 98.927094,74.844215 100.743362,75.566940 
	C99.829430,79.405525 98.692863,82.986511 97.176094,86.544998 
	C96.043083,81.637756 92.959160,82.992439 90.009727,83.987129 
z"/>
<path fill="#F8F9F5" opacity="1.000000" stroke="none" 
	d="
M98.457695,138.922531 
	C98.702667,133.625916 98.503510,128.082733 100.132370,123.142250 
	C101.813393,118.043510 105.272598,113.531029 108.059952,108.128578 
	C108.860291,107.551247 109.773384,107.342705 110.213356,107.706429 
	C113.110443,110.101540 115.905609,112.619919 118.778687,115.457382 
	C116.853569,120.824745 114.883781,125.832817 112.629105,131.029190 
	C110.769302,133.741440 109.194405,136.265381 107.619499,138.789322 
	C106.184769,138.791183 104.749725,138.774841 103.315399,138.799896 
	C101.815376,138.826080 100.316040,138.892075 98.457695,138.922531 
z"/>
<path fill="#F0B687" opacity="1.000000" stroke="none" 
	d="
M108.015533,138.830353 
	C109.194405,136.265381 110.769302,133.741440 112.662521,131.452988 
	C113.468826,133.084976 113.956810,134.481461 114.444794,135.877960 
	C115.838501,135.218933 117.315948,134.691345 118.605988,133.869583 
	C120.467453,132.683823 122.192924,131.284592 123.976433,129.976456 
	C123.976433,129.976456 124.147552,130.130157 124.238289,130.205353 
	C123.628265,131.310608 122.927513,132.340668 122.079620,133.650711 
	C119.153145,136.196365 116.373810,138.462021 113.268326,140.806366 
	C113.134743,136.382751 110.266411,138.767212 108.015533,138.830353 
z"/>
<path fill="#F0B687" opacity="1.000000" stroke="none" 
	d="
M104.338425,148.953522 
	C103.997940,148.528000 103.998734,148.097900 104.000160,147.345490 
	C105.113068,146.348236 106.225334,145.673325 107.685791,145.006683 
	C106.915886,146.326279 105.797798,147.637619 104.338425,148.953522 
z"/>
<path fill="#272425" opacity="1.000000" stroke="none" 
	d="
M48.191311,156.703888 
	C48.220276,157.465088 48.148346,157.897293 47.821968,158.645294 
	C47.567516,158.961121 47.136955,158.947159 46.816330,158.928436 
	C45.858261,158.871429 45.220825,158.833160 44.583385,158.794891 
	C44.583385,158.794891 44.331238,158.701645 44.243698,158.803467 
	C44.202339,156.868164 43.968899,154.611664 47.558266,155.032776 
	C47.989941,155.465225 48.040180,155.920044 48.191311,156.703888 
z"/>
<path fill="#66686B" opacity="1.000000" stroke="none" 
	d="
M44.294861,159.108368 
	C45.220825,158.833160 45.858261,158.871429 46.822060,159.283478 
	C48.065041,161.822983 48.981655,163.988678 49.898273,166.154388 
	C47.584805,166.219009 45.271339,166.283630 42.539017,166.435852 
	C42.748886,164.156250 43.377613,161.789032 44.294861,159.108368 
z"/>
<path fill="#056DD1" opacity="1.000000" stroke="none" 
	d="
M90.002312,83.992645 
	C92.959160,82.992439 96.043083,81.637756 96.969589,86.870468 
	C97.712395,90.832809 98.281509,94.447197 98.983200,98.401024 
	C96.932930,104.924065 93.769478,110.153351 86.936378,111.368584 
	C89.142967,114.524216 92.722031,117.502220 93.186760,120.905487 
	C93.657310,124.351372 91.047302,128.217911 89.179688,131.695221 
	C83.973877,131.996628 79.371613,132.475067 74.779266,133.034912 
	C73.945061,133.136597 73.151443,133.571213 72.339088,133.852127 
	C72.342583,134.363373 72.346077,134.874603 72.349571,135.385834 
	C74.903381,135.592697 77.457184,135.799545 79.957985,136.343323 
	C78.945084,137.780685 77.985191,138.881134 76.621819,139.940002 
	C73.146782,139.947800 70.075226,139.997162 66.708557,140.132202 
	C66.278137,134.142349 66.262222,128.060959 65.965393,121.993324 
	C65.768730,117.973320 65.398987,114.117661 70.073219,112.125885 
	C70.568954,111.914635 70.554268,110.505569 70.708328,109.913673 
	C67.569298,108.847496 64.809433,107.910103 62.016327,106.660301 
	C61.970703,105.929131 61.958317,105.510361 61.893814,104.879120 
	C61.718491,104.392227 61.524220,104.184235 61.202675,103.606712 
	C61.134850,101.121727 61.123219,99.072716 61.495872,97.016266 
	C63.106899,96.830452 64.333633,96.652069 65.560371,96.473686 
	C65.521492,96.081032 65.482613,95.688377 65.443726,95.295731 
	C64.027382,95.185249 62.611034,95.074760 61.161552,94.585274 
	C61.060005,93.448479 60.991600,92.690681 60.923195,91.932892 
	C60.923195,91.932892 60.978371,91.922096 61.271011,91.713387 
	C61.671070,90.302467 61.778488,89.100250 61.885906,87.898041 
	C61.885906,87.898041 61.831841,87.904732 62.161591,87.927216 
	C63.306351,88.955544 64.121353,89.961388 65.085075,91.150764 
	C66.049782,90.371353 67.408951,89.273239 68.506645,88.386383 
	C67.600044,85.715797 66.791649,83.334518 65.983261,80.953239 
	C67.519058,82.169151 69.054855,83.385056 71.054474,85.009903 
	C71.735397,85.946213 71.952515,86.473572 72.018051,87.264343 
	C73.052780,88.601051 74.239082,89.674347 75.577812,90.762878 
	C75.730232,90.778107 75.988297,90.943199 76.178696,91.224312 
	C79.083611,93.402718 81.361084,93.135353 83.091187,90.104111 
	C83.092873,90.059647 83.168854,90.105957 83.508156,90.100067 
	C84.418144,89.580101 84.988838,89.066032 85.763199,88.612404 
	C85.966873,88.672844 85.558990,88.534805 85.919701,88.573135 
	C87.516731,87.078545 88.753052,85.545624 89.989372,84.012695 
	C89.989372,84.012695 89.994896,83.998161 90.002312,83.992645 
z"/>
<path fill="#93ECFA" opacity="1.000000" stroke="none" 
	d="
M51.072491,171.695923 
	C51.102211,172.470322 51.097202,172.916260 51.081863,174.064728 
	C51.008793,175.516037 50.946049,176.264832 50.883308,177.013611 
	C49.872074,177.055756 48.860840,177.097900 47.471680,177.138489 
	C45.846798,176.487457 44.599842,175.837952 42.833218,174.917770 
	C43.456978,172.816971 44.112629,170.608780 44.795654,168.308380 
	C46.915234,168.986252 48.524048,169.500778 50.494076,170.038544 
	C50.916115,170.497025 50.976936,170.932236 51.072491,171.695923 
z"/>
<path fill="#2B2E49" opacity="1.000000" stroke="none" 
	d="
M50.138603,166.223907 
	C48.981655,163.988678 48.065041,161.822983 47.142689,159.302216 
	C47.136955,158.947159 47.567516,158.961121 47.782494,158.972565 
	C49.002789,161.164337 50.008102,163.344666 50.944057,165.942993 
	C50.709438,166.338455 50.544182,166.315933 50.138603,166.223907 
z"/>
<path fill="#FBFCFB" opacity="1.000000" stroke="none" 
	d="
M50.973423,177.262299 
	C50.946049,176.264832 51.008793,175.516037 51.133987,174.395905 
	C51.596493,174.017807 51.996544,174.011078 52.697914,174.002487 
	C52.653042,175.269608 52.306847,176.538620 51.629211,177.896484 
	C51.219696,177.827225 51.141617,177.669113 50.973423,177.262299 
z"/>
<path fill="#FEFFFF" opacity="1.000000" stroke="none" 
	d="
M69.437645,49.537846 
	C69.403198,49.479603 69.472092,49.596088 69.437645,49.537846 
z"/>
<path fill="#FBAF73" opacity="1.000000" stroke="none" 
	d="
M124.021927,129.628143 
	C122.192924,131.284592 120.467453,132.683823 118.605988,133.869583 
	C117.315948,134.691345 115.838501,135.218933 114.444794,135.877960 
	C113.956810,134.481461 113.468826,133.084976 112.947418,131.264679 
	C114.883781,125.832817 116.853569,120.824745 119.208755,115.424393 
	C120.732956,115.019119 121.871773,115.006126 123.008179,115.386658 
	C123.689224,116.774727 124.372665,117.769264 125.056114,118.763794 
	C126.091858,116.458786 127.127602,114.153778 128.163345,111.848763 
	C127.838676,111.640480 127.514000,111.432190 127.189331,111.223907 
	C126.121353,111.819069 125.053375,112.414230 123.582153,113.011505 
	C120.676208,112.077606 117.919327,111.530090 115.737999,110.102890 
	C113.259895,108.481522 111.296455,106.073524 109.109283,104.007492 
	C108.432053,103.220207 107.754829,102.432915 107.038300,101.327911 
	C111.519699,100.734077 116.040405,100.457947 120.463242,100.187790 
	C120.886726,97.714859 121.159584,96.121552 121.718712,94.264000 
	C124.105347,96.909966 126.205696,99.820168 128.601410,102.902359 
	C129.412292,104.945908 129.927841,106.817482 130.789062,108.848846 
	C131.134735,109.008644 131.216888,109.335381 131.157318,109.850075 
	C131.426712,110.918648 131.755692,111.472534 132.084671,112.026413 
	C132.084671,112.026413 132.190430,112.332596 132.212402,112.490990 
	C129.512054,118.192863 126.789742,123.736351 124.021927,129.628143 
z"/>
<path fill="#0D6EC9" opacity="1.000000" stroke="none" 
	d="
M65.661255,80.926590 
	C66.791649,83.334518 67.600044,85.715797 68.506645,88.386383 
	C67.408951,89.273239 66.049782,90.371353 65.085075,91.150764 
	C64.121353,89.961388 63.306351,88.955544 62.156883,87.900391 
	C62.524014,85.816658 63.225609,83.782242 63.966270,81.376358 
	C64.005333,81.004890 64.356209,80.911270 64.528427,80.856155 
	C64.913513,80.834000 65.126373,80.866974 65.661255,80.926590 
z"/>
<path fill="#D7B599" opacity="1.000000" stroke="none" 
	d="
M72.169632,87.000931 
	C71.952515,86.473572 71.735397,85.946213 71.345917,85.191147 
	C71.254440,81.828400 71.335335,78.693359 71.694878,75.258263 
	C72.885666,79.396339 73.797806,83.834465 74.806068,88.685471 
	C74.902191,89.098335 74.700974,89.302681 74.422729,89.196869 
	C73.486198,88.394341 72.827919,87.697639 72.169632,87.000931 
z"/>
<path fill="#F0B687" opacity="1.000000" stroke="none" 
	d="
M132.078262,111.699165 
	C131.755692,111.472534 131.426712,110.918648 131.141876,110.017822 
	C131.481308,110.237892 131.776581,110.804901 132.078262,111.699165 
z"/>
<path fill="#1066BE" opacity="1.000000" stroke="none" 
	d="
M77.025299,139.981567 
	C77.985191,138.881134 78.945084,137.780685 80.295311,136.198456 
	C83.477043,134.812119 86.268448,133.907578 89.059845,133.003052 
	C89.907784,134.328964 90.755714,135.654861 91.854958,137.373734 
	C89.988190,139.337112 88.041725,141.384308 85.673767,143.936691 
	C78.581467,143.928787 71.910660,143.415695 65.239853,142.902618 
	C64.755760,134.414581 64.271675,125.926537 63.814461,116.618271 
	C65.759865,112.345490 62.407921,109.962990 62.049568,106.972710 
	C64.809433,107.910103 67.569298,108.847496 70.708328,109.913673 
	C70.554268,110.505569 70.568954,111.914635 70.073219,112.125885 
	C65.398987,114.117661 65.768730,117.973320 65.965393,121.993324 
	C66.262222,128.060959 66.278137,134.142349 67.037415,140.292206 
	C71.860046,142.817139 76.160713,143.919449 80.669792,142.266266 
	C80.738739,141.720734 80.807686,141.175217 80.876633,140.629684 
	C79.592857,140.413651 78.309074,140.197601 77.025299,139.981567 
z"/>
<path fill="#0D0C12" opacity="1.000000" stroke="none" 
	d="
M65.131332,143.292587 
	C71.910660,143.415695 78.581467,143.928787 85.629326,144.279724 
	C87.598999,143.836411 89.191628,143.555237 90.917328,143.511673 
	C88.970779,146.226532 87.456734,149.456192 82.854523,149.690826 
	C80.482109,149.660202 78.749702,149.367706 76.678146,149.055389 
	C75.886536,149.051727 75.434059,149.067902 74.584503,149.066833 
	C73.128159,149.042297 72.068916,149.035034 71.009666,149.027771 
	C70.256973,149.016922 69.504288,149.006073 68.001099,148.994400 
	C66.502541,148.991440 65.754478,148.989288 65.006409,148.987122 
	C64.869026,148.870453 64.731651,148.753784 64.391350,148.458130 
	C64.466560,146.746948 64.744690,145.214767 65.131332,143.292587 
z"/>
<path fill="#E0A678" opacity="1.000000" stroke="none" 
	d="
M123.010582,114.993134 
	C121.871773,115.006126 120.732956,115.019119 119.164078,115.065109 
	C115.905609,112.619919 113.110443,110.101540 110.213356,107.706429 
	C109.773384,107.342705 108.860291,107.551247 108.017349,107.755600 
	C106.645935,106.918510 105.423195,105.820908 104.125793,104.413300 
	C105.587280,104.236992 107.123436,104.370667 108.884430,104.255920 
	C111.296455,106.073524 113.259895,108.481522 115.737999,110.102890 
	C117.919327,111.530090 120.676208,112.077606 123.565826,113.306389 
	C123.638680,114.063820 123.324631,114.528473 123.010582,114.993134 
z"/>
<path fill="#026FDC" opacity="1.000000" stroke="none" 
	d="
M89.056808,132.767960 
	C86.268448,133.907578 83.477043,134.812119 80.348320,135.861526 
	C77.457184,135.799545 74.903381,135.592697 72.349571,135.385834 
	C72.346077,134.874603 72.342583,134.363373 72.339088,133.852127 
	C73.151443,133.571213 73.945061,133.136597 74.779266,133.034912 
	C79.371613,132.475067 83.973877,131.996628 88.822372,131.776611 
	C89.072006,132.062988 89.053764,132.532867 89.056808,132.767960 
z"/>
<path fill="#272425" opacity="1.000000" stroke="none" 
	d="
M71.006981,149.422897 
	C72.068916,149.035034 73.128159,149.042297 74.631325,149.353577 
	C75.399048,149.962646 75.722847,150.267731 76.046646,150.572815 
	C76.370193,150.073608 76.693748,149.574402 77.017296,149.075195 
	C78.749702,149.367706 80.482109,149.660202 82.594147,149.950714 
	C84.195557,152.038086 85.417336,154.127457 86.639122,156.216812 
	C86.346916,156.536697 86.054710,156.856583 85.762512,157.176468 
	C84.544991,156.276260 83.327469,155.376053 82.193794,154.537842 
	C82.080521,154.818436 81.728065,155.691467 81.042282,157.390182 
	C80.316711,155.265640 79.846680,153.889343 79.028755,151.494385 
	C78.416870,153.257812 78.376266,154.416992 77.798477,154.836731 
	C76.303772,155.922607 74.572151,156.682373 72.935127,157.572357 
	C72.254929,155.984222 71.436760,154.436981 70.949188,152.791763 
	C70.680618,151.885544 70.967712,150.814667 71.006981,149.422897 
z"/>
<path fill="#272425" opacity="1.000000" stroke="none" 
	d="
M65.005142,149.394455 
	C65.754478,148.989288 66.502541,148.991440 67.624695,148.998138 
	C67.998779,150.833878 67.998779,152.665054 67.998779,154.496216 
	C67.357010,154.580688 66.715233,154.665146 66.073463,154.749603 
	C65.716934,153.100327 65.360413,151.451065 65.005142,149.394455 
z"/>
<path fill="#375B9D" opacity="1.000000" stroke="none" 
	d="
M62.016327,106.660301 
	C62.407921,109.962990 65.759865,112.345490 63.758808,116.234047 
	C63.005035,115.074867 62.333790,113.479675 61.399124,111.601074 
	C60.823162,109.702904 60.510628,108.088150 60.106590,106.093842 
	C60.148582,101.339668 60.282078,96.965065 60.669380,92.261673 
	C60.991600,92.690681 61.060005,93.448479 61.099449,94.925842 
	C61.084187,96.104851 61.097889,96.564278 61.111588,97.023705 
	C61.123219,99.072716 61.134850,101.121727 61.234970,103.823906 
	C61.459061,104.754654 61.666553,104.959496 61.945934,105.091599 
	C61.958317,105.510361 61.970703,105.929131 62.016327,106.660301 
z"/>
<path fill="#F9AD6C" opacity="1.000000" stroke="none" 
	d="
M78.024704,89.929962 
	C79.234581,87.021736 79.856270,83.493515 84.809090,84.288376 
	C85.557014,85.454819 85.787155,86.317802 85.932205,87.406189 
	C85.650085,87.900444 85.554047,88.201523 85.558990,88.534805 
	C85.558990,88.534805 85.966873,88.672844 85.459229,88.667389 
	C84.356735,88.825722 83.761894,88.989502 83.100037,88.844208 
	C82.365974,88.399048 81.594780,87.983948 81.053886,88.185844 
	C79.977180,88.587753 79.027100,89.328934 78.024704,89.929962 
z"/>
<path fill="#D7B599" opacity="1.000000" stroke="none" 
	d="
M77.800507,89.858810 
	C79.027100,89.328934 79.977180,88.587753 81.053886,88.185844 
	C81.594780,87.983948 82.365974,88.399048 83.085915,89.082520 
	C83.138809,89.629913 83.168854,90.105957 83.168854,90.105957 
	C83.168854,90.105957 83.092873,90.059647 82.695129,90.104065 
	C80.194359,90.413383 78.091331,90.678291 75.988297,90.943199 
	C75.988297,90.943199 75.730232,90.778107 75.474960,90.512772 
	C75.046791,89.932510 74.873878,89.617599 74.700974,89.302681 
	C74.700974,89.302681 74.902191,89.098335 75.003258,88.994812 
	C75.517944,88.933716 75.931564,88.976135 76.655067,89.056381 
	C77.086830,89.397583 77.290611,89.628731 77.800507,89.858810 
z"/>
<path fill="#3671AF" opacity="1.000000" stroke="none" 
	d="
M85.919701,88.573135 
	C85.554047,88.201523 85.650085,87.900444 86.231384,87.278107 
	C87.123695,86.047951 87.631737,85.171257 88.139771,84.294563 
	C88.548332,84.212738 88.956902,84.130913 89.677414,84.030899 
	C88.753052,85.545624 87.516731,87.078545 85.919701,88.573135 
z"/>
<path fill="#D7B599" opacity="1.000000" stroke="none" 
	d="
M88.103561,84.196449 
	C87.631737,85.171257 87.123695,86.047951 86.316483,87.052719 
	C85.787155,86.317802 85.557014,85.454819 85.199387,84.278961 
	C85.071899,83.966087 85.060890,83.554771 85.279205,83.322525 
	C85.497513,83.090271 85.963631,83.044373 85.963631,83.044373 
	C85.963631,83.044373 85.986572,83.002136 86.134888,83.278015 
	C86.839561,83.677147 87.395912,83.800407 87.952263,83.923660 
	C87.952263,83.923660 88.067352,84.098335 88.103561,84.196449 
z"/>
<path fill="#F9AD6C" opacity="1.000000" stroke="none" 
	d="
M87.786934,83.687408 
	C87.395912,83.800407 86.839561,83.677147 86.129578,83.299271 
	C86.524506,83.180145 87.073051,83.315651 87.786934,83.687408 
z"/>
<path fill="#F9AD6C" opacity="1.000000" stroke="none" 
	d="
M85.882584,82.863647 
	C85.963631,83.044373 85.497513,83.090271 85.264969,83.117279 
	C85.288803,82.990501 85.545174,82.836708 85.882584,82.863647 
z"/>
<path fill="#F6AB70" opacity="1.000000" stroke="none" 
	d="
M82.129761,67.692200 
	C81.989685,68.013397 81.507713,68.021194 81.267036,68.023293 
	C81.026360,66.503746 81.026360,64.982101 81.026360,63.460453 
	C81.642548,63.514107 82.258743,63.567760 82.874931,63.621418 
	C82.673233,64.871277 82.471535,66.121140 82.129761,67.692200 
z"/>
<path fill="#0D6EC9" opacity="1.000000" stroke="none" 
	d="
M61.611389,88.136353 
	C61.778488,89.100250 61.671070,90.302467 61.286400,91.736908 
	C61.118385,90.770981 61.227631,89.572815 61.611389,88.136353 
z"/>
<path fill="#026FDC" opacity="1.000000" stroke="none" 
	d="
M76.621819,139.940002 
	C78.309074,140.197601 79.592857,140.413651 80.876633,140.629684 
	C80.807686,141.175217 80.738739,141.720734 80.669792,142.266266 
	C76.160713,143.919449 71.860046,142.817139 67.332520,140.206512 
	C70.075226,139.997162 73.146782,139.947800 76.621819,139.940002 
z"/>
<path fill="#3671AF" opacity="1.000000" stroke="none" 
	d="
M76.178696,91.224312 
	C78.091331,90.678291 80.194359,90.413383 82.693451,90.148521 
	C81.361084,93.135353 79.083611,93.402718 76.178696,91.224312 
z"/>
<path fill="#0D6EC9" opacity="1.000000" stroke="none" 
	d="
M61.495876,97.016266 
	C61.097889,96.564278 61.084187,96.104851 61.132587,95.304855 
	C62.611034,95.074760 64.027382,95.185249 65.443726,95.295731 
	C65.482613,95.688377 65.521492,96.081032 65.560371,96.473686 
	C64.333633,96.652069 63.106899,96.830452 61.495876,97.016266 
z"/>
<path fill="#3671AF" opacity="1.000000" stroke="none" 
	d="
M74.422729,89.196869 
	C74.873878,89.617599 75.046791,89.932510 75.322540,90.497536 
	C74.239082,89.674347 73.052780,88.601051 72.018051,87.264343 
	C72.827919,87.697639 73.486198,88.394341 74.422729,89.196869 
z"/>
<path fill="#3671AF" opacity="1.000000" stroke="none" 
	d="
M83.508156,90.100067 
	C83.168854,90.105957 83.138809,89.629913 83.152924,89.391602 
	C83.761894,88.989502 84.356735,88.825722 85.255554,88.606949 
	C84.988838,89.066032 84.418144,89.580101 83.508156,90.100067 
z"/>
<path fill="#0D6EC9" opacity="1.000000" stroke="none" 
	d="
M61.893814,104.879120 
	C61.666553,104.959496 61.459061,104.754654 61.291168,104.259880 
	C61.524220,104.184235 61.718491,104.392227 61.893814,104.879120 
z"/>
<path fill="#F6AE7B" opacity="1.000000" stroke="none" 
	d="
M123.008179,115.386658 
	C123.324631,114.528473 123.638680,114.063820 123.969063,113.304276 
	C125.053375,112.414230 126.121353,111.819069 127.189331,111.223907 
	C127.514000,111.432190 127.838676,111.640480 128.163345,111.848763 
	C127.127602,114.153778 126.091858,116.458786 125.056114,118.763794 
	C124.372665,117.769264 123.689224,116.774727 123.008179,115.386658 
z"/>
<path fill="#21201F" opacity="1.000000" stroke="none" 
	d="
M76.678146,149.055374 
	C76.693748,149.574402 76.370193,150.073608 76.046646,150.572815 
	C75.722847,150.267731 75.399048,149.962646 75.028412,149.370819 
	C75.434059,149.067902 75.886536,149.051727 76.678146,149.055374 
z"/>
</svg>